<?xml version="1.0" encoding="iso-8859-1"?>
<!-- Generator: Adobe Illustrator 21.1.0, SVG Export Plug-In . SVG Version: 6.00 Build 0)  -->
<svg version="1.1" id="Capa_1" xmlns="http://www.w3.org/2000/svg" xmlns:xlink="http://www.w3.org/1999/xlink" x="0px" y="0px"
	 viewBox="-49 141 512 512" style="enable-background:new -49 141 512 512;" xml:space="preserve">
<path style="fill:#10C9C3;" d="M409.667,653H4.333c-29.441-0.035-53.298-23.893-53.333-53.333V194.333
	c0.035-29.441,23.893-53.298,53.333-53.333h405.333c29.441,0.035,53.298,23.893,53.333,53.333v405.333
	C462.965,629.107,439.107,652.965,409.667,653z M4.333,162.333c-17.673,0-32,14.327-32,32v405.333c0,17.673,14.327,32,32,32h405.333
	c17.673,0,32-14.327,32-32V194.333c0-17.673-14.327-32-32-32H4.333z"/>
<path style="fill:#10C9C3;" d="M-6.333,226.333h426.667v21.333H-6.333V226.333z"/>
<path style="fill:#10C9C3;" d="M4.333,183.667h21.333V205H4.333V183.667z"/>
<path style="fill:#10C9C3;" d="M47,183.667h21.333V205H47V183.667z"/>
<path style="fill:#10C9C3;" d="M388.333,183.667h21.333V205h-21.333V183.667z"/>
<path style="fill:#10C9C3;" d="M207,407.667c-11.186-0.124-21.749-5.169-28.875-13.792c-5.259-5.227-7.797-7.541-13.792-7.541V365
	c11.186,0.124,21.749,5.169,28.875,13.792c5.227,5.227,7.797,7.541,13.792,7.541c5.995,0,8.533-2.315,13.792-7.541
	c7.126-8.623,17.689-13.668,28.875-13.792v21.333c-5.995,0-8.533,2.315-13.792,7.541C228.749,402.497,218.186,407.543,207,407.667z"
	/>
<path style="fill:#10C9C3;" d="M196.333,397h21.333v192h-21.333V397z"/>
<path style="fill:#10C9C3;" d="M260.333,567.667H239V388.851l-32-64l-32,64v178.816h-21.333V386.333
	c-0.002-1.655,0.382-3.287,1.12-4.768l42.667-85.333c3.144-5.272,9.966-6.998,15.239-3.855c1.585,0.945,2.91,2.27,3.855,3.855
	l42.667,85.333c0.738,1.481,1.122,3.113,1.12,4.768V567.667z"/>
<path style="fill:#10C9C3;" d="M185.667,322.333h42.667v21.333h-42.667V322.333z"/>
<path style="fill:#10C9C3;" d="M15,333H-6.333v-42.667c0-5.891,4.776-10.667,10.667-10.667H47V301H15V333z"/>
<path style="fill:#10C9C3;" d="M409.667,599.667H367v-21.333h32v-32h21.333V589C420.333,594.891,415.558,599.667,409.667,599.667z"
	/>
</svg>
