<svg xmlns="http://www.w3.org/2000/svg" viewBox="0 0 512 512"><defs><style>.cls-1{fill:#fff;}.cls-2{fill:#224eaf;}</style></defs><title>social-facebook-circular-button</title><g id="Capa_1" data-name="Capa 1"><path class="cls-1" d="M256,0C114.61,0,0,114.61,0,256S114.61,512,256,512,512,397.39,512,256,397.39,0,256,0Zm0,472C136.7,472,40,375.3,40,256S136.7,40,256,40s216,96.7,216,216S375.3,472,256,472Z"/></g><g id="Слой_6" data-name="Слой 6"><path class="cls-2" d="M326.44,115.16l-36.54-.06c-41.06,0-67.59,27.22-67.59,69.35v32H185.57a5.74,5.74,0,0,0-5.75,5.75v46.33a5.74,5.74,0,0,0,5.75,5.74h36.74V391.16a5.74,5.74,0,0,0,5.75,5.74H276a5.74,5.74,0,0,0,5.74-5.74V274.25h43a5.74,5.74,0,0,0,5.75-5.74l0-46.33a5.75,5.75,0,0,0-5.75-5.75h-43V189.32c0-13,3.11-19.64,20.08-19.64h24.62a5.75,5.75,0,0,0,5.74-5.75v-43A5.74,5.74,0,0,0,326.44,115.16Z"/></g></svg>