<?xml version="1.0" encoding="iso-8859-1"?>
<!-- Generator: Adobe Illustrator 21.1.0, SVG Export Plug-In . SVG Version: 6.00 Build 0)  -->
<svg version="1.1" id="&#x421;&#x43B;&#x43E;&#x439;_1"
	 xmlns="http://www.w3.org/2000/svg" xmlns:xlink="http://www.w3.org/1999/xlink" x="0px" y="0px" viewBox="0 0 48 44.019"
	 style="enable-background:new 0 0 48 44.019;" xml:space="preserve">
<g>
	<rect x="22.398" y="7.218" style="fill:#37BFBD;" width="3.203" height="1.602"/>
	<rect x="20" y="10.421" style="fill:#37BFBD;" width="8" height="1.598"/>
	<rect x="8.801" y="21.62" style="fill:#37BFBD;" width="1.598" height="1.598"/>
	<rect x="12" y="21.62" style="fill:#37BFBD;" width="1.602" height="1.598"/>
	<rect x="15.199" y="21.62" style="fill:#37BFBD;" width="1.602" height="1.598"/>
	<rect x="18.398" y="21.62" style="fill:#37BFBD;" width="1.602" height="1.598"/>
	<rect x="21.602" y="21.62" style="fill:#37BFBD;" width="1.598" height="1.598"/>
	<rect x="24.801" y="21.62" style="fill:#37BFBD;" width="1.598" height="1.598"/>
	<rect x="28" y="21.62" style="fill:#37BFBD;" width="1.602" height="1.598"/>
	<rect x="31.199" y="21.62" style="fill:#37BFBD;" width="1.602" height="1.598"/>
	<rect x="34.398" y="21.62" style="fill:#37BFBD;" width="1.602" height="1.598"/>
	<rect x="37.602" y="21.62" style="fill:#37BFBD;" width="1.598" height="1.598"/>
	<rect x="16" y="32.819" style="fill:#37BFBD;" width="1.602" height="1.602"/>
	<path style="fill:#37BFBD;" d="M25.602,27.218v9.601c0,0.481,0.32,0.801,0.796,0.801h11.204c0.476,0,0.796-0.32,0.796-0.801v-9.601
		c0-0.481-0.32-0.797-0.796-0.797H26.398C25.922,26.421,25.602,26.741,25.602,27.218L25.602,27.218z M27.199,32.819h4v3.2h-4V32.819
		z M32.801,36.019v-3.2h4v3.2H32.801z M36.801,31.218h-4v-3.199h4V31.218z M31.199,28.019v3.199h-4v-3.199H31.199z M31.199,28.019"
		/>
	<path style="fill:#37BFBD;" d="M44.801,42.421v-2.402c0-0.481-0.321-0.801-0.801-0.801h-1.602V20.019h2.403
		c0.48,0,0.801-0.321,0.801-0.801v-2.957c0-0.242-0.082-0.481-0.321-0.641l-6.082-4.48V1.62c0-0.48-0.32-0.801-0.801-0.801H32
		c-0.48,0-0.801,0.321-0.801,0.801v3.52L24.48,0.179c-0.32-0.239-0.64-0.239-0.96,0L3.281,15.218H3.199V15.3l-0.48,0.32
		c-0.239,0.16-0.321,0.399-0.321,0.641v2.957c0,0.48,0.321,0.801,0.801,0.801h2.403v19.199H4c-0.48,0-0.801,0.32-0.801,0.801v2.402
		H0v1.598h48v-1.598H44.801z M37.602,2.421v0.797h-4.801V2.421H37.602z M32.801,4.819h4.801V9.94l-4.801-3.601V4.819z M4,16.819h32
		v-1.601H5.922L24,1.78l20,14.879v1.762H4V16.819z M7.199,20.019h33.602v19.199h-20V28.019h1.597v-1.598H8.801v1.598h1.597v11.199
		H7.199V20.019z M12,28.019h7.199v11.199H12V28.019z M4.801,42.421v-1.602h38.398v1.602H4.801z M4.801,42.421"/>
</g>
</svg>
