<?xml version="1.0" encoding="utf-8"?>
<!-- Generator: Adobe Illustrator 22.0.0, SVG Export Plug-In . SVG Version: 6.00 Build 0)  -->
<svg version="1.1" xmlns="http://www.w3.org/2000/svg" xmlns:xlink="http://www.w3.org/1999/xlink" x="0px" y="0px"
	 viewBox="0 0 512 512" style="enable-background:new 0 0 512 512;" xml:space="preserve">
<style type="text/css">
	.st0{display:none;}
	.st1{display:inline;}
	.st2{fill:#ffffff;}
	.st3{fill-rule:evenodd;clip-rule:evenodd;fill:#ffffff;}
	.st4{fill-rule:evenodd;clip-rule:evenodd;fill:#ffffff;}
</style>
<g id="Layer_1" class="st0">
	<g class="st1">
		<g>
			<path class="st2" d="M224,264c0,2-8.5,8-24,8s-24-6-24-8h-16c0,13.7,17.2,24,40,24s40-10.3,40-24H224z"/>
		</g>
	</g>
	<g class="st1">
		<g>
			<path class="st2" d="M336,264c0,2-8.5,8-24,8s-24-6-24-8h-16c0,13.7,17.2,24,40,24s40-10.3,40-24H336z"/>
		</g>
	</g>
	<g class="st1">
		<g>
			<rect y="168" class="st2" width="24" height="16"/>
		</g>
	</g>
	<g class="st1">
		<g>
			<rect x="32" y="136" class="st2" width="16" height="16"/>
		</g>
	</g>
	<g class="st1">
		<g>
			<rect y="136" class="st2" width="16" height="16"/>
		</g>
	</g>
	<g class="st1">
		<g>
			<rect x="464" y="144" class="st2" width="16" height="16"/>
		</g>
	</g>
	<g class="st1">
		<g>
			<rect x="496" y="144" class="st2" width="16" height="16"/>
		</g>
	</g>
	<g class="st1">
		<g>
			<rect x="416" y="32" class="st2" width="16" height="16"/>
		</g>
	</g>
	<g class="st1">
		<g>
			<rect x="448" y="32" class="st2" width="16" height="16"/>
		</g>
	</g>
	<g class="st1">
		<g>
			<rect x="480" y="32" class="st2" width="16" height="16"/>
		</g>
	</g>
	<g class="st1">
		<g>
			<rect x="32" class="st2" width="16" height="16"/>
		</g>
	</g>
	<g class="st1">
		<g>
			<rect x="64" class="st2" width="16" height="16"/>
		</g>
	</g>
	<g class="st1">
		<g>
			<rect x="96" class="st2" width="16" height="16"/>
		</g>
	</g>
	<g class="st1">
		<g>
			<rect x="248" y="40" class="st2" width="16" height="16"/>
		</g>
	</g>
	<g class="st1">
		<g>
			<rect x="280" y="40" class="st2" width="16" height="16"/>
		</g>
	</g>
	<g class="st1">
		<g>
			<rect x="208" y="128" class="st2" width="16" height="16"/>
		</g>
	</g>
	<g class="st1">
		<g>
			<rect x="240" y="128" class="st2" width="16" height="16"/>
		</g>
	</g>
	<g class="st1">
		<g>
			<rect x="312" y="40" class="st2" width="16" height="16"/>
		</g>
	</g>
	<g class="st1">
		<g>
			<path class="st2" d="M509.7,498.3l-41.9-41.9c-10.6-10.6-24.6-16.4-39.6-16.4H360c-21.6,0-39.2-17.3-39.9-38.7
				c37.6-47.7,59.9-105.7,63.5-167.5l0.6-9.7H512v-16H385.2c0.9-16.6-1.3-32.8-6.4-48H448v-16h-75.7c-5.6-11.4-13-22-22-31.6
				C325.8,86.4,292.5,72,256.7,72c-31.7,0-61.4,11.3-84.9,32H40v16h116.6c-11.6,14.3-19.9,30.6-24.4,48H40v16h89.1
				c-1,7.9-1.4,16-0.9,24.2l1.5,25.5c3.6,61.3,25.5,118.8,62.5,166.3H192c0,22.1-17.9,40-40,40H83.9c-15,0-29,5.8-39.6,16.4
				l-42,41.9C0.8,499.8,0,501.9,0,504v8h16v-4.7l39.6-39.6c7.6-7.5,17.6-11.7,28.3-11.7H152c25.3,0,46.7-16.9,53.6-39.9
				c6.8,7.6,14,14.9,21.7,21.9c1.5,1.3,3.4,2.1,5.4,2.1h48c2,0,3.9-0.7,5.4-2.1c7.3-6.6,14.2-13.5,20.7-20.7
				C314,439.7,335.1,456,360,456h68.1c10.7,0,20.7,4.2,28.3,11.7l39.6,39.6v4.7h16v-8C512,501.9,511.2,499.8,509.7,498.3z
				 M277.6,424h-41.8C182,374,150,306.2,145.7,232.8l-1.5-25.5c-0.5-7.9-0.1-15.7,1-23.3h43.5l-10.3,10.3l11.3,11.3l29.7-29.7
				l-29.7-29.7l-11.3,11.3l10.3,10.3h-39.8c5-16.4,13.6-31.7,25.8-44.6c21.5-22.8,50.6-35.4,82-35.4s60.5,12.6,82,35.4
				c6,6.4,11.1,13.3,15.4,20.6h-54.7l10.3-10.3l-11.3-11.3L268.7,152l29.7,29.7l11.3-11.3L299.3,160h62.5
				c5.8,14.8,8.4,30.8,7.4,47.3v0.7h-37.8l10.3-10.3l-11.3-11.3L300.7,216l29.7,29.7l11.3-11.3L331.3,224h36.9l-0.5,8.8
				C363.4,306.2,331.4,374,277.6,424z"/>
		</g>
	</g>
</g>
<g id="Слой_2" class="st0">
	<g class="st1">
		<path class="st3" d="M50.3,368.5v-16.6c0-2.2,0.6-16.4,1.3-17.7c1.7-3.1,23.9-4.2,28.3-4.2c45.1,0,87,23.4,109.4,60.9
			c18,30.1,16.5,53.6,16.5,88.1H75.8c-1.8-7.8-12.6-33.6-16.9-51.1C54.5,410.6,50.3,389.7,50.3,368.5L50.3,368.5z M428.7,479.1
			H300.4c0-20.9-1.6-39.3,4-59.3c3.5-12.3,5.3-15.1,10.6-25.5c3.6-7.1,13.2-19.5,18.7-25.1c21.6-21.9,55.8-38,86.8-38
			c12.5,0,16.1-0.2,28.3,1.8c1.8,0.3,4.1,0.9,6,1.1c3.2,13.5,0.5,52.8-1.6,65.2c-6.3,38-10.6,42-21.1,74.1
			C431.3,475.6,430.9,479.1,428.7,479.1L428.7,479.1z M56.2,301.7l6.3-22.7c1.3-3.8,2.3-6.8,3.5-10.6c1.1-3.3,3.5-8,3.8-11
			c3.2,0,7.4,1.2,10.2,1.6c10.8,1.6,42.7,6.2,53,6.7l33.5,2.5c3.1,0.4,7.6,0.3,11.1,0.8l70.7,2c8.6,0,25.7,0.5,32.1-0.4
			c3.5-0.5,8-0.2,11.7-0.2l57.3-3c20.2-1,54.7-4.9,75.6-8.4c2.8-0.5,7.8-1.6,10.7-1.7c1.5,2.8,3,7.3,4.2,10.6l7,22.5
			c0.8,3.3,2.7,9.2,2.9,12.4c-6.7-0.6-11.5-1.8-20.1-1.8c-27.8,0-44.6,3.3-68.1,12.9c-8.1,3.4-8.4,3.9-14.7,7.2
			c-9.3,4.8-23.2,14.5-30,21.4c-3.8,3.9-4.3,3.6-7.4,7.4c-4.6,5.6-7.1,6.6-13.5,16c-5.2,7.6-14,20.3-15.9,28.5
			c-4-0.3-18.5-8.8-41.6-3.8c-5,1.1-8.4,2.8-12.8,3.8c-0.6-7.2-15.4-28.6-21.5-36.4c-0.9-1.1-1.1-1.2-1.9-2.2
			c-21.4-25.5-52.4-44.3-85.5-51.6c-8.7-1.9-19.1-3.9-29.3-3.8c-2.9,0-5.9-0.5-7.6-0.5L56.2,301.7z M115.4,32.6h274.9
			c0,3.5-1.4,8.1-2.1,11.5l-11.8,56.8c-0.8,4.2-1.5,7.1-2.1,11.5c-2.4,16.4-0.4,30,4.6,45.3c2.5,7.5,8.4,19.2,13.1,25.4
			c8.6,11.5,24.4,34.7,30.3,45.9l-37.4,5.2c-13.1,1.4-26.4,2.6-39.5,3.6l-20,1.2c-4.2,0-6.8,0.4-10.1,0.6c-3.4,0.2-7.3-0.3-10.6,0.1
			l-42.1,1.1c-36.8,0-65.8-1.2-101.7-3l-39-3.6c-6.2-0.6-12.8-1.5-18.9-2.3c-5.9-0.8-13.4-1.6-19-2.9c1.2-5,23.2-36.8,29.4-45.1
			c11.8-15.7,19.1-35.9,19.1-60.7c0-13.7-11.3-61.7-14.8-79.2C116.9,40.2,115.9,36.4,115.4,32.6L115.4,32.6z M79.9,16.7
			c0,3.5,9.7,48.5,10.5,52.1c2,8.7,3.4,17.4,5.4,25.9c5.7,24.1,8.3,40-3.3,63.5c-2.8,5.7-25.3,36.9-30.5,45.7c-2.4,4-4.9,7.9-6.9,12
			c-2.2,4.4-4.5,8.1-6.7,12.8l-5.9,13.1c-13.9,32.1-24.1,74.8-24.1,110.1c0,34.6,0.9,44.4,8,77.1c2.8,12.7,17.4,56.4,23,69.9
			c1.4,3.4,2.4,4.7,4.9,6.9c1.7,1.5,5.3,3.4,8.4,3.4h159.6c8.5,0,14.8-7.6,14.8-12.4c0-16.8,0.8-47.9-0.7-63.2
			c-0.3-3.2-1.1-6-1.1-9.5c8.7-4.6,17.7-6.2,27.5-3.3c3.8,1.1,6.4,2.9,7.9,3.3c-0.1,2.9-1.3,8.5-1.6,11.4
			c-1.5,11.7-0.8,46.3-0.8,59.6c0,6.9,7.3,14.2,14.2,14.2h159.6c12.2,0,14.3-10.5,16.9-18c9.7-27.8,19.3-50.7,24.4-80.9
			c7.4-44.3,5.3-83.1-5.4-126.4c-8.3-33.4-23.5-64.4-42.2-92.6c-16.2-24.4-37.3-44.4-29.4-80.4l16.7-79.6c1.1-5.5,2.4-9.4,2.4-15.3
			c0-6.9-7.3-13.6-14.2-13.6H94.1C87.2,2.5,79.9,9.9,79.9,16.7L79.9,16.7z"/>
		<path class="st3" d="M237.1,165.7c0,24.1,35.9,18.7,31.3-1.7c-0.9-4-1.7-5.1-4.3-7.6C253.9,146.2,237.1,154.3,237.1,165.7
			L237.1,165.7z"/>
	</g>
</g>
<g id="Слой_3">
	<g>
		<path class="st3" d="M447.6,260.4h-32V277h33.7v7.7h-83.5v-32.6h83.5C449.4,257.9,450.2,260.4,447.6,260.4L447.6,260.4z
			 M123.8,197.6c14.6-1.2,56.5-12.4,68.3-16.3c10.1-3.4,36.2-13,45.6-17.8c17.9-9.1,12.6-8,29.8,0c5.3,2.5,10.5,4.7,15.7,6.8
			c12.5,5.1,28.6,10.8,41.7,14.6l26.8,6.9c5.9,1.5,31.4,6.4,38,7c0,4.8-1.9,14.7-3,19l-4.7,17.8c-5,0-25.5-1.1-29,1.2
			c-6.1,3.8-4.1,12.4-4.1,23.7h-25.5V277h25.5v17.2c0,2.9-5.7,8.4-7.8,10.5c-2.9,2.8-6.3,6.7-9.2,9.1c-3.5,2.8-6.3,5.6-10,8.4
			c-3.8,2.8-7,5.4-11,8c-9.3,6.2-13.8,8.5-23.7,13.5c-34.5,17.4-65.2,0.9-92.6-19.5l-14.5-12.1c-10.9-10.5-20.2-21.6-28.4-34.4
			l-6.6-11.1c-6.1-10.3-12.1-26.5-15.5-38.4C127.4,221.6,123.8,204.5,123.8,197.6L123.8,197.6z M271.2,146.1
			c3.2-0.7,27.2-15.9,31.7-19.2c2.2-1.6,3.7-2.6,5.9-4.1L348.7,91c2.3-1.8,3.2-2.7,5.3-4.8l10.8-9.9c1.8,2.8,3.7,5.1,5.5,8.1
			c20.5,34.6,20.5,52.8,20.5,97.3c-11.5,0-53.9-10.5-63.9-13.7c-16.6-5.3-26.9-9-42.6-15.4C282.1,151.7,272.5,147.9,271.2,146.1
			L271.2,146.1z M122.6,180.4c0-40.5,0.1-65.4,22.4-99c3.2-4.8,11.1-14.8,15.4-19l18.3-15.4c7.3-5.5,13.9-8.7,21.9-12.5
			c38.4-18,88-15.8,124,6c8.4,5.1,24,15.8,28.9,23.2l-16.7,15.3c-1.3,1.3-1.6,1.4-2.9,2.4c-1.2,1-1.8,1.8-3.1,2.9
			c-8,6.7-15.8,12.9-24.1,19.1c-3.9,3-8.3,6.2-12.4,8.9L281,121c-11.4,7.6-24.1,13.5-34.7,19.7c-9.3,5.5-44,19.1-53.8,22.6
			l-16.2,5.1c-13.4,3.8-21.2,6-35.1,8.8C135.9,178.3,128.1,180.4,122.6,180.4L122.6,180.4z M105.4,165.6c0,43.4,4.8,71.6,23.7,107.8
			c6.7,13,13.9,22.2,22.7,33.5c8,10.2,22.5,23.3,33.6,31.5c1.3,1,4,2.4,4,4.2v73.4H88.3c-12.2,0-24.7,3.3-33.1,7.1
			c-9.4,4.2-17.2,9.2-24.1,16.1c-7.4,7.4-12.5,13.1-17.3,22.9c-5.5,11.2-8.3,21.7-8.3,36.1h17.2c0-23.6,11.4-42.7,30-54.7
			c20.1-13.1,38.9-11,70.7-11h61c5.9,0,15.6,1.3,19.1-1.6c4.6-3.9,3.4-8.8,3.4-16.8v-61.6c3.7,0.9,22.7,14.8,46.2,14.8
			c15.2,0,18.6-0.1,32.9-5l15.8-7.3c1.9-1.1,2.8-2,5.1-2.6v61c0,8.1-1.3,13.4,3.4,17.4c3.4,2.9,12.8,1.6,18.5,1.6
			c20.5,0,41,0,61.6,0c31.8,0,50.6-2.1,70.7,11c8.1,5.3,15.3,12.2,20.3,20.6c6.3,10.7,9.7,19.3,9.7,34.2H508
			c0-46.4-38.6-82.3-82.9-82.3H323.9v-73.4c0-2,7.3-6.1,10.8-9.3c1.8-1.6,3.6-3,5.5-4.5l22.9-23.8c1.4-1.6,1.6-1,2.2-3.2h83.5
			c20.1,0,17.8-3.2,17.8-24.9h24.3v14.8c0,1.4,0.4,1.8,1.8,1.8H508v-49.7h-17.2v16.6h-24.3c0-28.2,1.2-24.9-27.8-24.9
			c-13,0-26,0-39.1,0c1.2-2.4,3.2-11.9,3.9-15.1c3.8-17.2,4.4-36.3,4.4-54.8c0-27.7-2.6-46.1-10.6-65.8
			c-6.9-17.2-17.7-34.4-29.8-46.5c-5.4-5.4-6.2-6.6-12.1-11.6c-8.1-6.8-22.2-16.8-31.9-20.8c-11-4.5-13.1-6.7-27.6-10.3
			c-26.4-6.5-51.7-6.7-78-0.1c-5.2,1.3-9.4,2.8-14.4,4.5c-8,2.8-18.7,8.2-25.9,12.6c-4.1,2.5-7.6,4.7-11.4,7.6l-7.9,6.3
			c-18.7,16.3-32.4,33.8-42.3,58.4C108.1,119.6,105.4,137.9,105.4,165.6L105.4,165.6z"/>
		<path class="st3" d="M147.5,450.5v15.4h71.6c2.2,0,12,11.7,14.8,13.6c1.4-0.9,1.9-1.6,3.1-2.8c1.4-1.4,1.8-1.5,3.2-2.7
			c1.2-1,1.9-1.9,3-2.9c1.4-1.3,2-1.5,2.5-3.4l-11.1-10.8c-3.9-3.9-6.4-8.1-13.8-8.1h-71.6C147.9,448.7,147.5,449.1,147.5,450.5
			L147.5,450.5z"/>
		<path class="st3" d="M267.6,467.6c0.8,3,6.5,6.8,8.7,9c1.2,1.2,1.7,1.9,3.1,2.8c2.8-1.9,12.6-13.6,14.8-13.6h71.6v-15.4
			c0-1.4-0.4-1.8-1.8-1.8h-71.6c-8,0-12.3,6.6-19.1,13.5C272.1,463.5,268.4,466.7,267.6,467.6L267.6,467.6z"/>
	</g>
</g>
<g id="Слой_4" class="st0">
	<g class="st1">
		<path class="st4" d="M27.9,273.2c0-12.7,6.8-36.3,15.7-46.5c0,18-0.9,91.2,1.1,105.9c1.4,9.8,4.6,20,8.4,27.5
			c8.3,16.4,16.8,27.6,32.5,38.7c2,1.4,3,2.2,5.4,3.6l11.8,6.1c37.7,16.8,80.6,7.5,109.6-21.3l3.3-3.4
			c12.5-14.8,20.3-29.4,23.6-49.8c2.4-14.7,1.6-74.8,1.5-96.5c0-4.5-0.6-5.3,1.1-7.8c1.7,0.6,0.5-0.8,3.2,4.1c1,1.9,1.7,2.6,2.6,4.7
			c4.9,11.6,8.8,22.7,8.8,36.6v206.7H27.9V273.2z M85.6,376.3l9.5-6.2c20.3-12.2,35.5-10.6,58.3-10.6c12.3,0,26.6,5,36.2,10.9
			c2.8,1.7,7.6,4.6,9.2,7.1c-1.5,1-3.4,2.7-4.9,4c-4.1,3.6-12.4,8.8-17.5,11.1c-26.8,12-56.1,9.2-80.4-6.9l-9.4-7.5
			C85.2,376.5,86.2,377.4,85.6,376.3L85.6,376.3z M162.3,309.6c-13,0-25.6-12-31.9-22.4c-2.3-3.7-4.5-7.8-4.5-13.4
			c0-2.6,16.6-15,20.2-17.4c5.5-3.6,18.3-10.5,26.3-11.2l18.5,17.4c-1.9,8.2-1.3,6.2-4.4,14.1c-4.3,10.8-11.7,19.8-19.3,28.3
			C166.1,306.3,164.2,309.6,162.3,309.6L162.3,309.6z M109.1,274.9c0,22.6,30.5,51.5,49.3,51.5c7.2,0,11.1,0.4,17.2-5.7
			c1.6-1.6,2.8-2.7,4-4.4c3.1-4.1,6.7-7.4,11.7-14.6c7.7-10.8,13.1-22.3,15.8-36.3c0.7-3.3,4.4-6.1,7.9-9.5c2.4-2.4,6.4-6.9,8.8-8.5
			c0,21.9,0,43.7,0,65.6c0,11.6-1,19.7-3.6,28.9c-1.4,5.1-7.9,19.8-11,22.1c-4.1-2.8-4.8-4.1-11.5-8.1c-3.7-2.3-8.9-4.9-13-6.6
			c-19.2-7.7-32.3-6.6-52.7-6.6c-12,0-24.1,3.2-32.6,6.6c-16.8,6.8-18.4,11.1-25.1,14.7c-7.2-10.8-14-26.8-14-44.8V211.6
			c0-40.4,33.1-73.4,74.5-73.4c23.3,0,38.6,0,57.7,13.5c5.6,4,10.3,8.5,14.7,13.9c3.1,3.8,9.3,12.9,10.5,18.1
			c-2.5,1.7-14.8,14.5-18.6,18.3L174,226.6c-1.9,2-1,1.5-4.2,2c-17.2,2.8-39.9,16.7-52.4,29.4C113,262.4,109.1,266.2,109.1,274.9
			L109.1,274.9z M199.3,248L188,236.4c2.3-3.3,10.2-9.9,14.3-14c7.2-7.2,26.7-27.3,33.2-32.9c7.3-6.2,28.4-28.5,37.1-36.9l7.3-6.7
			c4.4-4.4,18.7-19.3,21.4-21.2l11.3,11.1c-2.2,3.2-90.4,89.6-98.8,98C210.3,237.3,202.6,245.8,199.3,248L199.3,248z M355,150
			c-3.6,0-4.1-0.1-6.9-2.7c-10.3-9.4-19.5-19-29.4-28.9l-28.8-28.8c-6.8-6.7,0.6-12.6,3.9-16l48.3-48.1c1.8-1.4,2.7-1.7,6.2-1.7
			l136.7,0c-2.1,3.2-28.6,28.3-32.1,31.8c-10.2,10.2-26.1,26.8-35.8,35.9c-1.6,1.5-2.6,2-4.2,3.6l-24.1,24.1
			c-5.9,5.9-14.1,14.6-20.1,19.6C364.4,142.5,359.5,150,355,150L355,150z M270.4,82.2c0,18.9,12.1,21.3,18.5,30.8l-43.8,43.5
			c-4.4,4.4-10.1,10.9-15,14.2c-2.3-10-21.3-29.1-31.5-35.1c-9.1-5.4-12.2-7.1-22.7-10.3c-12.6-3.9-24.7-3.8-38.7-3.8
			c-23.3,0-39.8,6.4-53.8,15.7c-19,12.7-33.9,34.8-37.9,57.3c-1.8,10-1.4,4.2-10.5,15.8c-13.6,17.3-23.8,40-23.8,63.1v210.7
			c0,6.9,7.7,14.6,14.6,14.6h231.9c5.2,0,8.8-2.4,11.4-5.4c2.3-2.5,4.3-6.3,4.3-9.8V275.5c0-17.5-6-37.7-14.7-52
			c-1.3-2.2-2.7-4.1-3.8-6.3c2.7-4,21.4-21.2,26.2-25.9l43.8-43c3.5,2.3,8.1,8.2,11.6,11.3c10.1,9,23.9,9.9,34.2,0.9
			c11.7-10.2,31.4-30.8,43.1-42.6l9.2-8.7c3.2-3.2,6-6,9.2-9.2c4.7-4.7,26.9-27.4,31.6-31.1c1.7-1.3,3.2-3.1,4.8-4.7l27.2-27.2
			c5.5-5.5,6.6-7.1,6.6-15.3c0-6.9-7.7-14.6-14.6-14.6H345.5c-10.4,0-17.6,8.9-23.1,14.4l-37.5,37.5
			C279.3,64.7,270.4,71.6,270.4,82.2L270.4,82.2z"/>
	</g>
</g>
<g id="Слой_5" class="st0">
	<g class="st1">
		<path class="st4" d="M317.6,241.8h138.8v238H317.6V241.8z M224.1,129h62.3v350.8h-62.3V129z M54.1,241.8h138.8v238H54.1V241.8z
			 M317.6,129h157v82.8h-157V129z M36,129h157v82.8H36V129z M146.5,66.1c0-20.5,23.8-34.3,41.9-26.1c7.6,3.4,10.4,7.3,15.2,13.7
			c5.3,7.1,7.1,10.5,11.5,17.4c2,3.1,3.7,6.1,5.5,9.2L230.9,99c-18.9,0-38.3-1.2-54.5-3.9c-11.6-1.9-22.4-5.4-27.3-16.9
			C147.7,75,146.5,70.4,146.5,66.1L146.5,66.1z M279.6,99c0.9-1.7,1.5-2.5,2.5-4.3c0.9-1.8,1.5-3.2,2.5-4.9c4.9-8.8,10.5-18.7,16-27
			c1.9-2.8,3.7-5.5,5.8-8.3c1.1-1.5,2-2.8,3.1-4.2c4-4.9,5.5-6.7,11.8-9.8c11-5.4,25.5-1.9,33.5,5.4c11.5,10.6,12.5,28.6,0.6,40.5
			c-5.7,5.7-11.4,7.1-20.8,8.6C318.1,97.7,298.7,99,279.6,99L279.6,99z M115.3,66.1c0,9.1,2.4,18.7,6.2,26.1c1.2,2.3,2.7,4.4,4,6.8
			H4.8v142.8h18.1v267.5h464.7V241.8h18.1V99H385c5.5-10.5,10.2-17.3,10.2-32.3c0-20.1-11.1-37.9-25.3-47.3
			c-24.2-16-57.5-15.4-77.7,4.9c-11.5,11.5-14.4,17.5-23.4,31l-8.3,14.3c-1.3,2.3-4.1,6.6-4.7,8.9h-1.1c-0.6-2.3-3.4-6.6-4.7-8.9
			l-8.3-14.3c-9.5-14.4-18.3-29.8-33.5-39C171.2-6.1,115.3,18.9,115.3,66.1L115.3,66.1z"/>
	</g>
</g>
</svg>
