<svg xmlns="http://www.w3.org/2000/svg" xmlns:xlink="http://www.w3.org/1999/xlink" viewBox="0 0 512 512"><defs><style>.cls-1{fill:#fff;}.cls-2{fill:url(#Безымянный_градиент_3);}.cls-3{fill:url(#Безымянный_градиент_3-3);}</style><linearGradient id="Безымянный_градиент_3" x1="259.25" y1="832.64" x2="259.25" y2="561.73" gradientTransform="translate(0 -446)" gradientUnits="userSpaceOnUse"><stop offset="0" stop-color="#e09b3d"/><stop offset="0.3" stop-color="#c74c4d"/><stop offset="0.6" stop-color="#c21975"/><stop offset="1" stop-color="#7024c4"/></linearGradient><linearGradient id="Безымянный_градиент_3-3" x1="330.21" y1="832.64" x2="330.21" y2="561.73" xlink:href="#Безымянный_градиент_3"/></defs><title>inst</title><g id="Capa_1" data-name="Capa 1"><path class="cls-1" d="M256,0C114.61,0,0,114.61,0,256S114.61,512,256,512,512,397.39,512,256,397.39,0,256,0Zm0,472C136.7,472,40,375.3,40,256S136.7,40,256,40s216,96.7,216,216S375.3,472,256,472Z"/></g><g id="Слой_4" data-name="Слой 4"><path class="cls-2" d="M314.59,113.6H203.91a81.66,81.66,0,0,0-81.57,81.58V305.86a81.66,81.66,0,0,0,81.57,81.57H314.59a81.66,81.66,0,0,0,81.58-81.57V195.18A81.66,81.66,0,0,0,314.59,113.6Zm54,192.26a54,54,0,0,1-54,54H203.91a54,54,0,0,1-54-54V195.18a54,54,0,0,1,54-54H314.59a54,54,0,0,1,54,54V305.86Z"/><path class="cls-2" d="M259.25,179.69a70.83,70.83,0,1,0,70.83,70.83A70.9,70.9,0,0,0,259.25,179.69Zm0,114.1a43.28,43.28,0,1,1,43.28-43.27A43.27,43.27,0,0,1,259.25,293.79Z"/><circle class="cls-3" cx="330.21" cy="180.22" r="16.97"/></g></svg>