<?xml version="1.0" encoding="utf-8"?>
<!-- Generator: Adobe Illustrator 22.0.0, SVG Export Plug-In . SVG Version: 6.00 Build 0)  -->
<svg version="1.1" xmlns="http://www.w3.org/2000/svg" xmlns:xlink="http://www.w3.org/1999/xlink" x="0px" y="0px"
	 viewBox="0 0 75 75" style="enable-background:new 0 0 75 75;" xml:space="preserve">
<style type="text/css">
	.st0{display:none;}
	.st1{display:inline;}
	.st2{fill-rule:evenodd;clip-rule:evenodd;fill:#41B9BA;}
	.st3{fill:#41B9BA;}
	.st4{fill-rule:evenodd;clip-rule:evenodd;fill:#43B9BA;}
	.st5{fill:#43B9BA;}
	.st6{fill-rule:evenodd;clip-rule:evenodd;fill:#43B9BA;stroke:#141515;stroke-width:0.5766;stroke-miterlimit:10;}
</style>
<g id="Слой_1" class="st0">
	<g class="st1">
		<path class="st2" d="M48.4,14.7c-9.4-4.8-20.8-2.9-28.3,4.5c-8.7,8.7-9.6,22.5-2,32.2c0.3,0.3,0.7,0.5,1.1,0.5
			c0.3,0,0.6-0.1,0.8-0.3c0.6-0.5,0.7-1.3,0.2-1.9c-6.7-8.6-5.9-20.9,1.8-28.7c6.6-6.6,16.7-8.3,25.1-4c0.7,0.3,1.5,0.1,1.8-0.6
			C49.3,15.8,49,15,48.4,14.7L48.4,14.7z"/>
		<path class="st2" d="M59.2,25.5c-0.3-0.7-1.2-0.9-1.8-0.6c-0.7,0.3-0.9,1.1-0.6,1.8c4.2,8.4,2.6,18.5-4,25.1
			c-7.7,7.7-20,8.5-28.6,1.8c-0.6-0.5-1.4-0.4-1.9,0.2c-0.5,0.6-0.4,1.4,0.2,1.9c4.4,3.4,9.7,5.1,14.9,5.1c6.3,0,12.5-2.4,17.3-7.1
			C62.1,46.3,63.9,34.9,59.2,25.5L59.2,25.5z"/>
		<path class="st2" d="M55.7,20.3c-0.3-0.4-0.7-0.8-1-1.1c-0.4-0.4-0.7-0.7-1.1-1c-0.6-0.5-1.4-0.4-1.9,0.1
			c-0.5,0.6-0.4,1.4,0.1,1.9c0.3,0.3,0.7,0.6,1,0.9c0.3,0.3,0.6,0.7,0.9,1c0.3,0.3,0.6,0.5,1,0.5c0.3,0,0.6-0.1,0.9-0.3
			C56.1,21.7,56.2,20.9,55.7,20.3L55.7,20.3z"/>
		<path class="st2" d="M69.3,38.9c0.9-1.5,0.9-3.3,0-4.8l-1.8-2.9c-0.2-0.4-0.3-0.8-0.3-1.3l0.5-3.4c0.3-1.7-0.4-3.4-1.8-4.4l-2.8-2
			c-0.4-0.3-0.6-0.7-0.7-1.1l-0.8-3.3c-0.4-1.7-1.7-3-3.4-3.4l-3.3-0.8c-0.4-0.1-0.8-0.4-1.1-0.7l-2-2.8c-1-1.4-2.7-2.1-4.4-1.8
			L44,6.7c-0.4,0.1-0.9,0-1.3-0.3l-2.9-1.8c-1.5-0.9-3.3-0.9-4.8,0l-2.9,1.8c-0.4,0.2-0.8,0.3-1.3,0.3l-3.4-0.5
			C25.8,5.9,24.1,6.6,23,8l-2,2.8c-0.3,0.4-0.7,0.6-1.1,0.7l-3.3,0.8c-1.7,0.4-3,1.7-3.4,3.4L12.4,19c-0.1,0.4-0.4,0.8-0.7,1.1
			l-2.8,2c-1.4,1-2.1,2.7-1.8,4.4l0.5,3.4c0.1,0.4,0,0.9-0.3,1.3l-1.8,2.9c-0.9,1.5-0.9,3.3,0,4.8l1.8,2.9c0.2,0.4,0.3,0.8,0.3,1.3
			l-0.5,3.4c-0.3,1.7,0.4,3.4,1.8,4.4l2.8,2c0.4,0.3,0.6,0.7,0.7,1.1l0.8,3.3c0.4,1.7,1.7,3,3.4,3.4L18,61c1.6,0.3,2.1,0.3,3,1.2
			l2,2.8c0.2,0.3,0.4,0.5,0.6,0.7c0,0,1.1,1,2.4,1.1c0.1,0,0.1,0,0.2,0c0.4,0,0.8,0,1.2,0l3.4-0.5c0.2,0,0.4,0,0.6,0
			c1.6,0.5,2.3,1.2,3.6,2c0.7,0.4,1.6,0.7,2.4,0.7c0.8,0,1.7-0.2,2.4-0.7l1.3-0.8c1-0.8,1.8-1.3,2.9-1.3l3.4,0.5
			c0.4,0.1,0.9,0.1,1.3,0l0,0c0,0,0.1,0,0.1,0l0,0c0.3,0,1.6-0.2,2.4-1.2c0-0.1,0.1-0.1,0.1-0.1c0.2-0.2,0.3-0.3,0.4-0.5l2-2.8
			c0.1-0.2,0.3-0.3,0.5-0.4c0,0,1.2-0.8,2.6-0.8l1.3-0.3c1.7-0.4,3-1.7,3.4-3.4l0.8-3.3c0.1-0.4,0.4-0.8,0.7-1.1l2.8-2
			c1.4-1,2.1-2.7,1.8-4.4l-0.5-3.4c-0.1-0.4,0-0.9,0.3-1.3L69.3,38.9z M66.9,37.5l-1.8,2.9c-0.6,0.9-0.8,2-0.6,3.1l0.5,3.4
			c0.1,0.7-0.2,1.4-0.8,1.8l-2.8,2c-0.9,0.6-1.5,1.6-1.8,2.6L59,56.7c-0.2,0.7-0.7,1.2-1.4,1.4l-3.3,0.8c-1.1,0.3-2,0.9-2.6,1.8
			l-2,2.8c-0.4,0.6-1.1,0.9-1.8,0.8l-3.4-0.5c-1.1-0.2-2.2,0.1-3.1,0.6L38.4,66c-0.6,0.4-1.4,0.4-2,0l-2.9-1.8
			c-0.7-0.4-1.6-0.7-2.4-0.7c-0.2,0-0.5,0-0.7,0.1l-3.4,0.5c-0.7,0.1-1.4-0.2-1.8-0.8l-2-2.8c-0.6-0.9-1.6-1.5-2.6-1.8l-3.3-0.8
			c-0.7-0.2-1.2-0.7-1.4-1.4l-0.8-3.3c-0.3-1.1-0.9-2-1.8-2.6l-2.8-2c-0.6-0.4-0.9-1.1-0.8-1.8l0.5-3.4c0.2-1.1,0-2.2-0.6-3.1
			l-1.8-2.9c-0.4-0.6-0.4-1.4,0-2l1.8-2.9c0.6-0.9,0.8-2,0.6-3.1l-0.5-3.4c-0.1-0.7,0.2-1.4,0.8-1.8l2.8-2c0.9-0.6,1.5-1.6,1.8-2.6
			l0.8-3.3c0.2-0.7,0.7-1.2,1.4-1.4l3.3-0.8c1.1-0.3,2-0.9,2.6-1.8l2-2.8c0.4-0.6,1.1-0.9,1.8-0.8l3.4,0.5c1.1,0.2,2.2,0,3.1-0.6
			L36.5,7c0.6-0.4,1.4-0.4,2,0l2.9,1.8c0.9,0.6,2,0.8,3.1,0.6l3.4-0.5c0.7-0.1,1.4,0.2,1.8,0.8l2,2.8c0.6,0.9,1.6,1.5,2.6,1.8
			l3.3,0.8c0.7,0.2,1.2,0.7,1.4,1.4l0.8,3.3c0.3,1.1,0.9,2,1.8,2.6l2.8,2c0.6,0.4,0.9,1.1,0.8,1.8l-0.5,3.4
			c-0.2,1.1,0.1,2.2,0.6,3.1l1.8,2.9C67.3,36.1,67.3,36.9,66.9,37.5L66.9,37.5z"/>
		<path class="st3" d="M46.7,28L34.5,40.2L33.6,41l-0.9-0.9l-3.3-3.3l0,0c-0.4-0.4-0.8-0.5-1.3-0.5c-0.5,0-1,0.2-1.3,0.5l0,0l0,0
			c-0.4,0.4-0.5,0.8-0.5,1.3s0.2,1,0.5,1.3l5.5,5.5c0.2,0.2,0.4,0.3,0.6,0.4c0.2,0.1,0.5,0.1,0.7,0.1c0.3,0,0.5,0,0.7-0.1
			c0.2-0.1,0.4-0.2,0.6-0.4l14.4-14.4v0c0.4-0.4,0.5-0.8,0.5-1.3s-0.2-1-0.5-1.3h0l0,0c-0.4-0.4-0.8-0.5-1.3-0.5
			C47.5,27.4,47,27.6,46.7,28L46.7,28L46.7,28z M33.6,37.6l11.3-11.3l0,0h0c0.8-0.8,1.9-1.3,3-1.3c1.1,0,2.2,0.4,3,1.3h0h0
			c0.8,0.8,1.3,1.9,1.3,3.1c0,1.1-0.4,2.2-1.3,3v0L36.7,46.7c-0.4,0.4-0.9,0.7-1.4,0.9c-0.5,0.2-1.1,0.3-1.6,0.3s-1.1-0.1-1.6-0.3
			c-0.5-0.2-1-0.5-1.4-0.9l-5.5-5.5c-0.8-0.8-1.3-1.9-1.3-3.1c0-1.1,0.4-2.2,1.3-3v0l0,0c0.8-0.8,1.9-1.3,3.1-1.3
			c1.1,0,2.2,0.4,3.1,1.3l0,0L33.6,37.6z"/>
	</g>
</g>
<g id="Слой_2" class="st0">
</g>
<g id="Слой_3" class="st0">
	<g class="st1">
		<path class="st4" d="M9.1,54.2v10.6c0,0.6,0.5,1.2,1.2,1.2h8.2c0.6,0,1.2-0.5,1.2-1.2V46.2l-5.9,5.9C12.5,53.4,10.9,54.1,9.1,54.2
			L9.1,54.2z"/>
		<path class="st4" d="M23.7,46.1v18.8c0,0.6,0.5,1.2,1.2,1.2h8.2c0.6,0,1.2-0.5,1.2-1.2v-11c-1.9,0-3.6-0.8-4.9-2.1L23.7,46.1z"/>
		<path class="st4" d="M38.4,52.6v12.2c0,0.6,0.5,1.2,1.2,1.2h8.2c0.6,0,1.2-0.5,1.2-1.2V42.3l-9.4,9.4C39.2,52,38.8,52.3,38.4,52.6
			L38.4,52.6z"/>
		<path class="st4" d="M62.8,28.4L53,38.2v26.6c0,0.6,0.5,1.2,1.2,1.2h8.2c0.6,0,1.2-0.5,1.2-1.2V29.2c-0.3-0.2-0.5-0.4-0.6-0.6
			L62.8,28.4z"/>
		<path class="st4" d="M69.4,11.1c-0.4-0.4-1-0.6-1.7-0.6c-0.1,0-0.1,0-0.2,0c-3.8,0.2-7.6,0.4-11.4,0.5c-0.5,0-1.2,0.1-1.8,0.6
			c-0.2,0.2-0.3,0.4-0.4,0.6c-0.6,1.2,0.2,2,0.6,2.4l1,1c0.7,0.7,1.3,1.3,2,2l-23,23L24.1,30.3c-0.6-0.6-1.4-1-2.3-1
			c-0.9,0-1.7,0.4-2.3,1L5.7,44.1c-1.3,1.3-1.3,3.4,0,4.7l0.6,0.6c0.6,0.6,1.5,1,2.3,1s1.7-0.3,2.3-1l10.8-10.8l10.3,10.3
			c0.6,0.6,1.4,1,2.3,1c0.9,0,1.7-0.4,2.3-1l26-26l2.9,2.9c0.4,0.3,0.8,0.8,1.6,0.8c0.3,0,0.6-0.1,0.9-0.3c0.2-0.1,0.4-0.3,0.6-0.4
			c0.6-0.6,0.7-1.3,0.7-1.9c0.1-2.5,0.2-4.9,0.4-7.4L70,13C70,12.2,69.9,11.6,69.4,11.1L69.4,11.1z"/>
	</g>
</g>
<g id="Слой_4" class="st0">
	<g class="st1">
		<path class="st4" d="M12.3,13.4V5.1c0-1.1,0.9-2.1,2.1-2.1c1.1,0,2.1,0.9,2.1,2.1v8.3c0,1.1-0.9,2.1-2.1,2.1
			C13.2,15.4,12.3,14.5,12.3,13.4L12.3,13.4z M47.3,15.4c1.1,0,2.1-0.9,2.1-2.1V5.1c0-1.1-0.9-2.1-2.1-2.1c-1.1,0-2.1,0.9-2.1,2.1
			v8.3C45.2,14.5,46.2,15.4,47.3,15.4L47.3,15.4z M70,52.6c0,9.1-7.4,16.5-16.5,16.5S37,61.7,37,52.6s7.4-16.5,16.5-16.5
			S70,43.5,70,52.6L70,52.6z M65.9,52.6c0-6.8-5.5-12.4-12.4-12.4s-12.4,5.6-12.4,12.4c0,6.8,5.5,12.4,12.4,12.4
			S65.9,59.4,65.9,52.6L65.9,52.6z M20.5,27.8h-8.3v8.2h8.3V27.8z M12.3,48.4h8.3v-8.3h-8.3V48.4z M24.6,36.1h8.3v-8.2h-8.3V36.1z
			 M24.6,48.4h8.3v-8.3h-8.3V48.4z M8.1,52.2V23.7h45.4v8.3h4.1V15.8c0-2.5-2-4.5-4.5-4.5h-1.7v2.1c0,2.3-1.8,4.1-4.1,4.1
			c-2.3,0-4.1-1.9-4.1-4.1v-2.1H18.4v2.1c0,2.3-1.8,4.1-4.1,4.1c-2.3,0-4.1-1.9-4.1-4.1v-2.1H8.5c-2.5,0-4.5,2-4.5,4.5v36.3
			c0,2.5,2,4.5,4.5,4.5h24.4v-4.1H8.5C8.3,52.6,8.1,52.4,8.1,52.2L8.1,52.2z M45.2,36.1v-8.2H37v8.2H45.2z M59.7,52.6h-6.2v-6.2
			c0-1.1-0.9-2.1-2.1-2.1c-1.1,0-2.1,0.9-2.1,2.1v8.3c0,1.1,0.9,2.1,2.1,2.1h8.3c1.1,0,2.1-0.9,2.1-2.1
			C61.7,53.5,60.8,52.6,59.7,52.6L59.7,52.6z"/>
	</g>
</g>
<g id="Слой_5" class="st0">
	<g class="st1">
		<path class="st4" d="M36.3,4H17.2C14.8,4,13,5.9,13,8.2v4.4c0,0.6,0.4,1,1,1c0.6,0,1-0.4,1-1V8.2C15,7,16,6,17.2,6h19.1V4z"/>
		<path class="st4" d="M35.7,63.7H17.3c-1.2,0-2.2-1-2.2-2.2V16.6c0-0.6-0.4-1-1-1c-0.6,0-1,0.4-1,1v44.9c0,2.3,1.9,4.2,4.2,4.2
			h18.4V63.7z"/>
		<path class="st4" d="M35.7,65.7h9v-2h-9V65.7z M52.1,65.7h2.6c2.3,0,4.2-1.9,4.2-4.2v-4.4c0-0.6-0.4-1-1-1c-0.6,0-1,0.4-1,1v4.4
			c0,1.2-1,2.2-2.2,2.2h-2.6V65.7z"/>
		<path class="st4" d="M34.9,6h19.8c1.2,0,2.2,1,2.2,2.2v44.9c0,0.6,0.4,1,1,1s1-0.4,1-1V8.2C58.9,5.9,57,4,54.6,4H34.9V6z"/>
		<path class="st5" d="M34.6,13h2.9c0.4,0,0.7,0.1,0.9,0.4l0,0c0.2,0.2,0.4,0.6,0.4,0.9v2.5h2.5c0.4,0,0.7,0.1,0.9,0.4l0,0
			c0.2,0.2,0.4,0.6,0.4,0.9v2.9c0,0.4-0.1,0.7-0.4,0.9v0c-0.2,0.2-0.6,0.4-0.9,0.4h-2.5V25c0,0.4-0.1,0.7-0.4,0.9l0,0
			c-0.2,0.2-0.6,0.4-0.9,0.4h-2.9c-0.4,0-0.7-0.1-0.9-0.4l0,0c-0.2-0.2-0.4-0.6-0.4-0.9v-2.5h-2.5c-0.4,0-0.7-0.1-0.9-0.4h0
			c-0.2-0.2-0.4-0.6-0.4-0.9v-2.9c0-0.4,0.1-0.7,0.4-0.9h0c0.2-0.2,0.6-0.4,0.9-0.4h2.5v-2.5c0-0.4,0.1-0.7,0.4-0.9
			C33.9,13.1,34.2,13,34.6,13L34.6,13z M37.5,14h-2.9c-0.1,0-0.2,0-0.2,0.1c-0.1,0.1-0.1,0.1-0.1,0.2v3v0.5h-0.5h-3
			c-0.1,0-0.2,0-0.2,0.1l0,0c-0.1,0.1-0.1,0.1-0.1,0.2v2.9c0,0.1,0,0.2,0.1,0.2l0,0c0.1,0.1,0.1,0.1,0.2,0.1h3h0.5v0.5v3
			c0,0.1,0,0.2,0.1,0.2v0c0.1,0.1,0.1,0.1,0.2,0.1h2.9c0.1,0,0.2,0,0.2-0.1v0c0.1-0.1,0.1-0.1,0.1-0.2v-3v-0.5h0.5h3
			c0.1,0,0.2,0,0.2-0.1c0.1-0.1,0.1-0.1,0.1-0.2v-2.9c0-0.1,0-0.2-0.1-0.2l0,0c-0.1-0.1-0.1-0.1-0.2-0.1h-3h-0.5v-0.5v-3
			c0-0.1,0-0.2-0.1-0.2v0C37.7,14,37.6,14,37.5,14L37.5,14z"/>
		<path class="st5" d="M21,8.5h30.1c0.7,0,1.3,0.3,1.7,0.7c0.4,0.4,0.7,1,0.7,1.7v35.3c0,0.7-0.3,1.3-0.7,1.7
			c-0.4,0.4-1,0.7-1.7,0.7H21c-0.7,0-1.3-0.3-1.7-0.7c-0.4-0.4-0.7-1-0.7-1.7V11c0-0.7,0.3-1.3,0.7-1.7C19.7,8.8,20.3,8.5,21,8.5
			L21,8.5z M51.1,10.5H21c-0.1,0-0.3,0.1-0.4,0.1c-0.1,0.1-0.1,0.2-0.1,0.4v35.3c0,0.1,0.1,0.3,0.1,0.4c0.1,0.1,0.2,0.1,0.4,0.1
			h30.1c0.1,0,0.3-0.1,0.4-0.1c0.1-0.1,0.1-0.2,0.1-0.4V11c0-0.1-0.1-0.3-0.1-0.4C51.4,10.5,51.2,10.5,51.1,10.5L51.1,10.5z"/>
		<path class="st4" d="M22.7,35.2h26.6c0.2,0,0.4,0.2,0.4,0.4v0.7c0,0.2-0.2,0.4-0.4,0.4H22.7c-0.2,0-0.4-0.2-0.4-0.4v-0.7
			C22.3,35.4,22.5,35.2,22.7,35.2L22.7,35.2z"/>
		<path class="st4" d="M22.7,39.5h26.6c0.2,0,0.4,0.2,0.4,0.4v0.7c0,0.2-0.2,0.4-0.4,0.4H22.7c-0.2,0-0.4-0.2-0.4-0.4v-0.7
			C22.3,39.7,22.5,39.5,22.7,39.5L22.7,39.5z"/>
		<path class="st4" d="M48.4,60.5c1.6,0,3-1.3,3-3c0-1.6-1.3-3-3-3c-1.6,0-3,1.3-3,3C45.4,59.2,46.8,60.5,48.4,60.5L48.4,60.5z
			 M48.4,56c0.8,0,1.5,0.7,1.5,1.5c0,0.8-0.7,1.5-1.5,1.5c-0.8,0-1.5-0.7-1.5-1.5C46.9,56.7,47.6,56,48.4,56L48.4,56z M48.4,56"/>
		<path class="st4" d="M48.4,66.8l3.7,3.7v-8.3c1.4-1.1,2.2-2.8,2.2-4.7c0-3.3-2.7-6-6-6s-6,2.7-6,6c0,1.9,0.9,3.6,2.2,4.7v8.3
			L48.4,66.8z M50.6,66.9l-2.2-2.2l-2.2,2.2v-3.9c0.7,0.3,1.4,0.4,2.2,0.4c0.8,0,1.6-0.2,2.2-0.4V66.9z M43.9,57.5
			c0-2.5,2-4.5,4.5-4.5c2.5,0,4.5,2,4.5,4.5c0,2.5-2,4.5-4.5,4.5C45.9,62,43.9,60,43.9,57.5L43.9,57.5z M43.9,57.5"/>
		<path class="st4" d="M22.7,43.5h26.6c0.2,0,0.4,0.2,0.4,0.4v0.7c0,0.2-0.2,0.4-0.4,0.4H22.7c-0.2,0-0.4-0.2-0.4-0.4v-0.7
			C22.3,43.7,22.5,43.5,22.7,43.5L22.7,43.5z"/>
		<path class="st4" d="M28,31.1h16.1c0.2,0,0.4,0.2,0.4,0.4v0.7c0,0.2-0.2,0.4-0.4,0.4H28c-0.2,0-0.4-0.2-0.4-0.4v-0.7
			C27.5,31.3,27.7,31.1,28,31.1L28,31.1z"/>
	</g>
</g>
<g id="Слой_6" class="st0">
	<g class="st1">
		<path class="st4" d="M10.5,14.1c7.2-7.2,18.3-8,26.4-3.2c8.4-5,20-3.7,26.9,3.2c8.3,8.3,8.3,21.8,0,30.1c0,0,0,0,0,0l-5.5,5.5
			c0,0,0,0,0,0c-1,1-2.4,1.6-3.8,1.7c-0.1,1.4-0.6,2.7-1.7,3.8c-1.1,1-2.4,1.6-3.8,1.7c-0.1,1.4-0.6,2.7-1.7,3.8
			c-1,1.1-2.4,1.6-3.8,1.7c-0.1,1.4-0.6,2.7-1.7,3.8c-2.3,2.3-5.9,2.3-8.1,0.1l-6.4-5.4c0,0-0.1-0.1-0.1-0.1c-1.1-1-1.6-2.4-1.7-3.8
			c-1.4-0.1-2.8-0.7-3.8-1.7c-1-1-1.7-2.4-1.9-3.8c-1.5,0-2.9-0.6-4-1.7c-1.1-1.1-1.6-2.4-1.7-3.8c-1.4-0.1-2.8-0.7-3.8-1.7l0,0
			C1.8,35.5,1.8,22.7,10.5,14.1L10.5,14.1z M52.8,46.9L52.8,46.9L52.8,46.9c0.8,0.8,2,0.8,2.7,0c0,0,0,0,0,0l0,0
			c0.7-0.7,0.7-1.9,0-2.7l-5.5-4.6c0,0-0.1-0.1-0.1-0.1c-0.8-0.8-2-0.8-2.7,0c-0.6,0.6-0.7,1.6-0.3,2.4l5.8,4.9
			C52.8,46.8,52.8,46.9,52.8,46.9L52.8,46.9z M47.4,52.4c0.8,0.8,2,0.8,2.7,0c0.7-0.7,0.8-1.9,0-2.7c-6.1-5.1-5.3-4.3-6.5-5.5
			c-0.8-0.8-2-0.8-2.7,0c-0.7,0.7-0.8,1.9,0,2.7l6.3,5.4C47.3,52.3,47.3,52.3,47.4,52.4L47.4,52.4z M41.9,57.8c0.8,0.8,2,0.8,2.7,0
			c0.7-0.7,0.8-1.9,0-2.7l-6.3-5.4c0,0-0.1-0.1-0.1-0.1c-0.8-0.8-2-0.8-2.7,0c-0.7,0.7-0.8,1.9,0,2.7l6.3,5.4
			C41.8,57.8,41.9,57.8,41.9,57.8L41.9,57.8z M30,57.8l6.3,5.4c0,0,0.1,0.1,0.1,0.1c0.8,0.8,2,0.8,2.7,0c0.7-0.7,0.8-1.9,0-2.7
			l-6.3-5.4c0,0-0.1-0.1-0.1-0.1c-0.8-0.8-2-0.8-2.7,0C29.3,55.9,29.3,57,30,57.8L30,57.8z M13.2,41.4c0.8,0.8,2,0.8,2.7,0
			l10.9-10.9c0.8-0.8,2-0.8,2.7,0c0.8,0.8,0.8,2,0,2.7L18.7,44.2c-0.8,0.8-0.8,2,0,2.7c0.8,0.8,2,0.8,2.7,0h0L32.4,36
			c0.8-0.8,2-0.8,2.7,0c0.8,0.8,0.8,2,0,2.7L24.2,49.6c-0.7,0.7-0.4,2,0.4,2.7c0.8,0.8,2,0.8,2.7,0l0,0c1-1,2.4-1.6,3.8-1.7
			c0.1-1.4,0.6-2.7,1.7-3.8c1.1-1,2.4-1.6,3.8-1.7c0.1-1.4,0.6-2.7,1.7-3.8c1.3-1.3,3-1.8,4.7-1.7c0.2-1.1,0.7-2.1,1.6-3
			c2.2-2.2,5.9-2.3,8.1-0.1l5.5,4.6c0,0,0.1,0.1,0.1,0.1c0.5,0.5,0.9,1,1.1,1.6l1.6-1.6c3.3-3.3,5.1-7.7,5.1-12.3
			c0-4.6-1.8-9-5.1-12.3c-5.2-5.2-14-6.5-20.8-3.4c0.2,0.2,0.5,0.4,0.7,0.6l7.9,7.9c2.4,2.4,2.4,6.3,0,8.7c-2.1,2.1-5.4,2.4-7.8,0.8
			l-12.2-8.1c-5.3,5.3-9.4,9.1-15.7,15.3C12.5,39.5,12.5,40.7,13.2,41.4L13.2,41.4z M10.5,36c6.7-6.7,11-10.6,16.8-16.4c0,0,0,0,0,0
			c0.6-0.7,1.7-0.8,2.4-0.2l0,0l13.5,9c0.9,0.6,2.1,0.5,2.9-0.3c0.9-0.9,0.9-2.4,0-3.3l-7.9-7.9c-6.8-6.8-18.2-6.8-25,0
			c-5.5,5.5-7,13.2-3.4,20C10,36.5,10.2,36.2,10.5,36L10.5,36z"/>
	</g>
</g>
<g id="Слой_7" class="st0">
	<g class="st1">
		<path class="st5" d="M17.5,23c-1.5,0-2.8-0.7-3.8-1.9c-0.9-1.1-1.5-2.7-1.5-4.4c0-1.7,0.6-3.3,1.5-4.4c1-1.2,2.3-1.9,3.8-1.9
			c1.5,0,2.8,0.7,3.8,1.9c0.9,1.1,1.5,2.7,1.5,4.4c0,1.7-0.6,3.3-1.5,4.4C20.3,22.3,19,23,17.5,23L17.5,23z M15.2,19.9
			c0.6,0.8,1.4,1.2,2.3,1.2c0.9,0,1.7-0.5,2.3-1.2c0.7-0.8,1.1-2,1.1-3.3c0-1.3-0.4-2.4-1.1-3.3c-0.6-0.8-1.4-1.2-2.3-1.2
			c-0.9,0-1.7,0.5-2.3,1.2c-0.7,0.8-1.1,2-1.1,3.3C14.1,17.9,14.5,19.1,15.2,19.9L15.2,19.9z"/>
		<path class="st5" d="M38,19.4c-1.5,0-2.8-0.7-3.8-1.9c-0.9-1.1-1.5-2.7-1.5-4.4c0-1.7,0.6-3.3,1.5-4.4c1-1.2,2.3-1.9,3.8-1.9
			s2.8,0.7,3.8,1.9c0.9,1.1,1.5,2.7,1.5,4.4c0,1.7-0.6,3.3-1.5,4.4C40.8,18.6,39.5,19.4,38,19.4L38,19.4z M35.6,16.3
			c0.6,0.8,1.4,1.2,2.3,1.2c0.9,0,1.7-0.5,2.3-1.2c0.7-0.8,1.1-2,1.1-3.3c0-1.3-0.4-2.4-1.1-3.3C39.7,9,38.9,8.5,38,8.5
			c-0.9,0-1.7,0.5-2.3,1.2c-0.7,0.8-1.1,2-1.1,3.3C34.6,14.3,35,15.4,35.6,16.3L35.6,16.3z"/>
		<path class="st5" d="M57.9,23c-1.5,0-2.8-0.7-3.8-1.9c-0.9-1.1-1.5-2.7-1.5-4.4c0-1.7,0.6-3.3,1.5-4.4c1-1.2,2.3-1.9,3.8-1.9
			c1.5,0,2.8,0.7,3.8,1.9c0.9,1.1,1.5,2.7,1.5,4.4c0,1.7-0.6,3.3-1.5,4.4C60.7,22.3,59.4,23,57.9,23L57.9,23z M55.5,19.9
			c0.6,0.8,1.4,1.2,2.3,1.2c0.9,0,1.7-0.5,2.3-1.2c0.7-0.8,1.1-2,1.1-3.3s-0.4-2.4-1.1-3.3c-0.6-0.8-1.4-1.2-2.3-1.2
			c-0.9,0-1.7,0.5-2.3,1.2c-0.7,0.8-1.1,2-1.1,3.3S54.9,19.1,55.5,19.9L55.5,19.9z"/>
		<polygon class="st4" points="20,20.5 55,20.5 57.8,22.1 57.7,22.4 17.7,22.4 17.8,22 		"/>
		<path class="st5" d="M20,20h35h0.1l0.1,0.1l2.8,1.6l0.4,0.2l-0.2,0.4l-0.1,0.3L58,22.9h-0.3h-40h-0.6l0.1-0.5l0.1-0.5l0-0.2
			l0.2-0.1l2.3-1.5l0.1-0.1H20z M54.9,21H20.2l-1.6,1h38L54.9,21z"/>
		<path class="st4" d="M21.3,30H22c0.4,0,0.6,0.3,0.6,0.6v31.8c0,0.4-0.3,0.6-0.6,0.6h-0.6c-0.4,0-0.6-0.3-0.6-0.6V30.6
			C20.7,30.3,21,30,21.3,30L21.3,30z"/>
		<path class="st5" d="M21.3,29.5H22c0.3,0,0.6,0.1,0.8,0.3c0.2,0.2,0.3,0.5,0.3,0.8v31.8c0,0.3-0.1,0.6-0.3,0.8
			c-0.2,0.2-0.5,0.3-0.8,0.3h-0.6c-0.3,0-0.6-0.1-0.8-0.3s-0.3-0.5-0.3-0.8V30.6c0-0.3,0.1-0.6,0.3-0.8C20.8,29.6,21,29.5,21.3,29.5
			L21.3,29.5z M22,30.4h-0.6c-0.1,0-0.1,0-0.1,0.1c0,0-0.1,0.1-0.1,0.1v31.8c0,0,0,0.1,0.1,0.1c0,0,0.1,0.1,0.1,0.1H22
			c0.1,0,0.1,0,0.1-0.1c0,0,0.1-0.1,0.1-0.1V30.6c0,0,0-0.1-0.1-0.1C22.1,30.5,22,30.4,22,30.4L22,30.4z"/>
		<path class="st4" d="M9.9,34.8h0.6c0.4,0,0.6,0.3,0.6,0.6v26.9c0,0.4-0.3,0.6-0.6,0.6H9.9c-0.4,0-0.6-0.3-0.6-0.6V35.5
			C9.2,35.1,9.5,34.8,9.9,34.8L9.9,34.8z"/>
		<path class="st5" d="M9.9,34.4h0.6c0.3,0,0.6,0.1,0.8,0.3c0.2,0.2,0.3,0.5,0.3,0.8v26.9c0,0.3-0.1,0.6-0.3,0.8
			c-0.2,0.2-0.5,0.3-0.8,0.3H9.9c-0.3,0-0.6-0.1-0.8-0.3c-0.2-0.2-0.3-0.5-0.3-0.8V35.5c0-0.3,0.1-0.6,0.3-0.8
			C9.3,34.5,9.6,34.4,9.9,34.4L9.9,34.4z M10.5,35.3H9.9c0,0-0.1,0-0.1,0.1c0,0-0.1,0.1-0.1,0.1v26.9c0,0.1,0,0.1,0.1,0.1
			c0,0,0.1,0,0.1,0h0.6c0,0,0.1,0,0.1,0c0,0,0.1-0.1,0.1-0.1V35.5c0-0.1,0-0.1-0.1-0.1C10.6,35.3,10.6,35.3,10.5,35.3L10.5,35.3z"/>
		<path class="st4" d="M15.7,46.9h0.6c0.4,0,0.6,0.3,0.6,0.6v14.9c0,0.4-0.3,0.6-0.6,0.6h-0.6c-0.4,0-0.6-0.3-0.6-0.6V47.5
			C15,47.1,15.3,46.9,15.7,46.9L15.7,46.9z"/>
		<path class="st5" d="M15.7,46.4h0.6c0.3,0,0.6,0.1,0.8,0.3c0.2,0.2,0.3,0.5,0.3,0.8v14.9c0,0.3-0.1,0.6-0.3,0.8
			c-0.2,0.2-0.5,0.3-0.8,0.3h-0.6c-0.3,0-0.6-0.1-0.8-0.3c-0.2-0.2-0.3-0.5-0.3-0.8V47.5c0-0.3,0.1-0.6,0.3-0.8
			C15.1,46.5,15.4,46.4,15.7,46.4L15.7,46.4z M16.3,47.3h-0.6c0,0-0.1,0-0.1,0.1c0,0-0.1,0.1-0.1,0.1v14.9c0,0.1,0,0.1,0.1,0.1
			c0,0,0.1,0.1,0.1,0.1h0.6c0,0,0.1,0,0.1-0.1c0,0,0.1-0.1,0.1-0.1V47.5c0-0.1,0-0.1-0.1-0.1C16.4,47.3,16.4,47.3,16.3,47.3
			L16.3,47.3z"/>
		<path class="st4" d="M28.4,27H13.8l-0.2,0C7.2,26.9,7,32.4,7,32.4l0,15C7,47.7,6.7,48,6.4,48H5.7c-0.4,0-0.6-0.3-0.6-0.6
			c0-5-0.1-10.1,0-15.1c0,0,0.2-7.4,8.5-7.3l0.2,0h15.2h0.5h0.2c0.4,0,0.6,0.3,0.6,0.6v36.7c0,0.4-0.3,0.6-0.6,0.6h-0.6
			c-0.4,0-0.6-0.3-0.6-0.6V27z"/>
		<path class="st5" d="M28,27.4H13.8l0,0l-0.2,0h0c-5.9-0.1-6.1,4.9-6.1,5v0v0l0,0l0,15h0c0,0.3-0.1,0.6-0.3,0.8
			c-0.2,0.2-0.5,0.3-0.8,0.3H5.7c-0.3,0-0.6-0.1-0.8-0.3c-0.2-0.2-0.3-0.5-0.3-0.8c0-1.8,0-3.4,0-4.9c0-3.4-0.1-6.8,0-10.2v0v0l0,0
			c0-0.3,0.4-7.9,9-7.7h0l0.2,0l0,0h15.2h0.5h0.2c0.3,0,0.6,0.1,0.8,0.3h0c0.2,0.2,0.3,0.5,0.3,0.8v36.7c0,0.3-0.1,0.6-0.3,0.8l0,0
			l0,0c-0.2,0.2-0.5,0.3-0.8,0.3h-0.6c-0.3,0-0.6-0.1-0.8-0.3h0C28.1,63,28,62.7,28,62.4V27.4z M13.8,26.5h14.6h0.5V27v35.4
			c0,0,0,0.1,0.1,0.1l0,0c0,0,0.1,0.1,0.1,0.1h0.6c0.1,0,0.1,0,0.1,0v0c0,0,0.1-0.1,0.1-0.1V25.7c0-0.1,0-0.1-0.1-0.1l0,0
			c0,0-0.1-0.1-0.1-0.1h-0.2h-0.5H13.8l0,0l-0.2,0c-7.8-0.1-8,6.8-8,6.8v0l0,0l0,0c-0.1,3.3-0.1,6.7,0,10.1c0,1.8,0,3.5,0,4.9
			c0,0,0,0.1,0.1,0.1c0,0,0.1,0.1,0.1,0.1h0.6c0,0,0.1,0,0.1-0.1c0,0,0.1-0.1,0.1-0.1l0,0l0-15v0l0,0l0,0c0-0.4,0.4-5.9,7-5.9
			L13.8,26.5L13.8,26.5z"/>
		<path class="st4" d="M54.2,30h-0.6c-0.4,0-0.6,0.3-0.6,0.6v31.8c0,0.4,0.3,0.6,0.6,0.6h0.6c0.4,0,0.6-0.3,0.6-0.6V30.6
			C54.9,30.3,54.6,30,54.2,30L54.2,30z"/>
		<path class="st5" d="M54.2,30.4h-0.6c-0.1,0-0.1,0-0.1,0.1c0,0-0.1,0.1-0.1,0.1v31.8c0,0,0,0.1,0.1,0.1c0,0,0.1,0.1,0.1,0.1h0.6
			c0.1,0,0.1,0,0.1-0.1c0,0,0.1-0.1,0.1-0.1V30.6c0,0,0-0.1-0.1-0.1C54.3,30.5,54.3,30.4,54.2,30.4L54.2,30.4z M53.6,29.5h0.6
			c0.3,0,0.6,0.1,0.8,0.3c0.2,0.2,0.3,0.5,0.3,0.8v31.8c0,0.3-0.1,0.6-0.3,0.8c-0.2,0.2-0.5,0.3-0.8,0.3h-0.6
			c-0.3,0-0.6-0.1-0.8-0.3c-0.2-0.2-0.3-0.5-0.3-0.8V30.6c0-0.3,0.1-0.6,0.3-0.8C53,29.6,53.3,29.5,53.6,29.5L53.6,29.5z"/>
		<path class="st4" d="M65.7,34.8h-0.6c-0.4,0-0.6,0.3-0.6,0.6v26.9c0,0.4,0.3,0.6,0.6,0.6h0.6c0.4,0,0.6-0.3,0.6-0.6V35.5
			C66.3,35.1,66.1,34.8,65.7,34.8L65.7,34.8z"/>
		<path class="st5" d="M65.7,35.3h-0.6c0,0-0.1,0-0.1,0.1c0,0-0.1,0.1-0.1,0.1v26.9c0,0.1,0,0.1,0.1,0.1c0,0,0.1,0,0.1,0h0.6
			c0,0,0.1,0,0.1,0c0,0,0.1-0.1,0.1-0.1V35.5c0-0.1,0-0.1-0.1-0.1C65.8,35.3,65.8,35.3,65.7,35.3L65.7,35.3z M65.1,34.4h0.6
			c0.3,0,0.6,0.1,0.8,0.3c0.2,0.2,0.3,0.5,0.3,0.8v26.9c0,0.3-0.1,0.6-0.3,0.8c-0.2,0.2-0.5,0.3-0.8,0.3h-0.6
			c-0.3,0-0.6-0.1-0.8-0.3c-0.2-0.2-0.3-0.5-0.3-0.8V35.5c0-0.3,0.1-0.6,0.3-0.8C64.5,34.5,64.8,34.4,65.1,34.4L65.1,34.4z"/>
		<path class="st4" d="M59.9,46.9h-0.6c-0.4,0-0.6,0.3-0.6,0.6v14.9c0,0.4,0.3,0.6,0.6,0.6h0.6c0.4,0,0.6-0.3,0.6-0.6V47.5
			C60.5,47.1,60.3,46.9,59.9,46.9L59.9,46.9z"/>
		<path class="st5" d="M59.9,47.3h-0.6c0,0-0.1,0-0.1,0.1c0,0-0.1,0.1-0.1,0.1v14.9c0,0.1,0,0.1,0.1,0.1c0,0,0.1,0.1,0.1,0.1h0.6
			c0,0,0.1,0,0.1-0.1c0,0,0.1-0.1,0.1-0.1V47.5c0-0.1,0-0.1-0.1-0.1C60,47.3,59.9,47.3,59.9,47.3L59.9,47.3z M59.2,46.4h0.6
			c0.3,0,0.6,0.1,0.8,0.3c0.2,0.2,0.3,0.5,0.3,0.8v14.9c0,0.3-0.1,0.6-0.3,0.8c-0.2,0.2-0.5,0.3-0.8,0.3h-0.6
			c-0.3,0-0.6-0.1-0.8-0.3c-0.2-0.2-0.3-0.5-0.3-0.8V47.5c0-0.3,0.1-0.6,0.3-0.8C58.7,46.5,58.9,46.4,59.2,46.4L59.2,46.4z"/>
		<path class="st4" d="M47.1,27h14.6l0.2,0c6.4-0.1,6.5,5.4,6.5,5.4l0,15c0,0.4,0.3,0.6,0.6,0.6h0.6c0.4,0,0.6-0.3,0.6-0.6
			c0-5,0.1-10.1,0-15.1c0,0-0.2-7.4-8.5-7.3l-0.2,0H46.5H46h-0.2c-0.4,0-0.6,0.3-0.6,0.6v36.7c0,0.4,0.3,0.6,0.6,0.6h0.6
			c0.4,0,0.6-0.3,0.6-0.6V27z"/>
		<path class="st5" d="M47.1,26.5h14.6h0l0.2,0c6.6-0.1,7,5.5,7,5.9h0l0,0v0l0,15l0,0c0,0,0,0.1,0.1,0.1c0,0,0.1,0.1,0.1,0.1h0.6
			c0,0,0.1,0,0.1-0.1c0,0,0.1-0.1,0.1-0.1c0-1.4,0-3.2,0-4.9c0-3.4,0.1-6.8,0-10.1l0,0l0,0v0c0-0.1-0.2-6.9-8-6.8l-0.2,0l0,0H46.5
			H46h-0.2c0,0-0.1,0-0.1,0.1c0,0-0.1,0.1-0.1,0.1v36.7c0,0,0,0.1,0.1,0.1l0,0c0,0,0.1,0.1,0.1,0.1h0.6c0,0,0.1,0,0.1-0.1
			c0,0,0.1-0.1,0.1-0.1V27v-0.5H47.1z M61.8,27.4L61.8,27.4H47.6v35c0,0.3-0.1,0.6-0.3,0.8c-0.2,0.2-0.5,0.3-0.8,0.3h-0.6
			c-0.3,0-0.6-0.1-0.8-0.3h0c-0.2-0.2-0.3-0.5-0.3-0.8V25.7c0-0.3,0.1-0.6,0.3-0.8c0.2-0.2,0.5-0.3,0.8-0.3H46h0.5h15.2l0,0l0.2,0
			l0,0c8.5-0.1,8.9,7.4,9,7.7h0l0,0v0c0.1,3.3,0.1,6.8,0,10.2c0,1.6,0,3.1,0,4.9c0,0.3-0.1,0.6-0.3,0.8c-0.2,0.2-0.5,0.3-0.8,0.3
			h-0.6c-0.3,0-0.6-0.1-0.8-0.3c-0.2-0.2-0.3-0.5-0.3-0.8h0l0-15l0,0v0v0c0-0.1-0.2-5.1-6.1-5h0L61.8,27.4z"/>
		<path class="st4" d="M37.4,46.9h0.6c0.4,0,0.6,0.3,0.6,0.6v14.9c0,0.4-0.3,0.6-0.6,0.6h-0.6c-0.4,0-0.6-0.3-0.6-0.6V47.5
			C36.8,47.1,37.1,46.9,37.4,46.9L37.4,46.9z"/>
		<path class="st5" d="M37.4,46.4h0.6c0.3,0,0.6,0.1,0.8,0.3c0.2,0.2,0.3,0.5,0.3,0.8v14.9c0,0.3-0.1,0.6-0.3,0.8
			c-0.2,0.2-0.5,0.3-0.8,0.3h-0.6c-0.3,0-0.6-0.1-0.8-0.3c-0.2-0.2-0.3-0.5-0.3-0.8V47.5c0-0.3,0.1-0.6,0.3-0.8
			C36.8,46.5,37.1,46.4,37.4,46.4L37.4,46.4z M38.1,47.3h-0.6c0,0-0.1,0-0.1,0.1c0,0-0.1,0.1-0.1,0.1v14.9c0,0.1,0,0.1,0.1,0.1
			c0,0,0.1,0.1,0.1,0.1h0.6c0,0,0.1,0,0.1-0.1c0,0,0.1-0.1,0.1-0.1V47.5c0-0.1,0-0.1-0.1-0.1C38.2,47.3,38.1,47.3,38.1,47.3
			L38.1,47.3z"/>
		<path class="st4" d="M37.4,26.8h0.6c0.4,0,0.6,0.3,0.6,0.6v0.8c0,0.4-0.3,0.6-0.6,0.6h-0.6c-0.4,0-0.6-0.3-0.6-0.6v-0.8
			C36.8,27.1,37.1,26.8,37.4,26.8L37.4,26.8z"/>
		<path class="st5" d="M37.4,26.4h0.6c0.3,0,0.6,0.1,0.8,0.3c0.2,0.2,0.3,0.5,0.3,0.8v0.8c0,0.3-0.1,0.6-0.3,0.8
			c-0.2,0.2-0.5,0.3-0.8,0.3h-0.6c-0.3,0-0.6-0.1-0.8-0.3c-0.2-0.2-0.3-0.5-0.3-0.8v-0.8c0-0.3,0.1-0.6,0.3-0.8
			C36.8,26.5,37.1,26.4,37.4,26.4L37.4,26.4z M38.1,27.3h-0.6c-0.1,0-0.1,0-0.1,0.1c0,0-0.1,0.1-0.1,0.1v0.8c0,0,0,0.1,0.1,0.1
			c0,0,0.1,0.1,0.1,0.1h0.6c0.1,0,0.1,0,0.1-0.1c0,0,0.1-0.1,0.1-0.1v-0.8c0,0,0-0.1-0.1-0.1C38.2,27.3,38.1,27.3,38.1,27.3
			L38.1,27.3z"/>
		<path class="st4" d="M37.4,32.6h0.6c0.4,0,0.6,0.3,0.6,0.6v0.8c0,0.4-0.3,0.6-0.6,0.6h-0.6c-0.4,0-0.6-0.3-0.6-0.6v-0.8
			C36.8,32.9,37.1,32.6,37.4,32.6L37.4,32.6z"/>
		<path class="st5" d="M37.4,32.2h0.6c0.3,0,0.6,0.1,0.8,0.3c0.2,0.2,0.3,0.5,0.3,0.8v0.8c0,0.3-0.1,0.6-0.3,0.8
			c-0.2,0.2-0.5,0.3-0.8,0.3h-0.6c-0.3,0-0.6-0.1-0.8-0.3c-0.2-0.2-0.3-0.5-0.3-0.8v-0.8c0-0.3,0.1-0.6,0.3-0.8
			C36.8,32.3,37.1,32.2,37.4,32.2L37.4,32.2z M38.1,33.1h-0.6c-0.1,0-0.1,0-0.1,0.1c0,0-0.1,0.1-0.1,0.1v0.8c0,0,0,0.1,0.1,0.1
			c0,0,0.1,0.1,0.1,0.1h0.6c0.1,0,0.1,0,0.1-0.1c0,0,0.1-0.1,0.1-0.1v-0.8c0,0,0-0.1-0.1-0.1C38.2,33.1,38.1,33.1,38.1,33.1
			L38.1,33.1z"/>
		<path class="st4" d="M37.4,38.4h0.6c0.4,0,0.6,0.3,0.6,0.6v0.8c0,0.4-0.3,0.6-0.6,0.6h-0.6c-0.4,0-0.6-0.3-0.6-0.6v-0.8
			C36.8,38.7,37.1,38.4,37.4,38.4L37.4,38.4z"/>
		<path class="st5" d="M37.4,37.9h0.6c0.3,0,0.6,0.1,0.8,0.3c0.2,0.2,0.3,0.5,0.3,0.8v0.8c0,0.3-0.1,0.6-0.3,0.8
			c-0.2,0.2-0.5,0.3-0.8,0.3h-0.6c-0.3,0-0.6-0.1-0.8-0.3c-0.2-0.2-0.3-0.5-0.3-0.8v-0.8c0-0.3,0.1-0.6,0.3-0.8
			C36.8,38.1,37.1,37.9,37.4,37.9L37.4,37.9z M38.1,38.9h-0.6c-0.1,0-0.1,0-0.1,0.1c0,0-0.1,0.1-0.1,0.1v0.8c0,0,0,0.1,0.1,0.1
			c0,0,0.1,0.1,0.1,0.1h0.6c0.1,0,0.1,0,0.1-0.1c0,0,0.1-0.1,0.1-0.1v-0.8c0,0,0-0.1-0.1-0.1C38.2,38.9,38.1,38.9,38.1,38.9
			L38.1,38.9z"/>
	</g>
</g>
<g id="Слой_8" class="st0">
	<g class="st1">
		<path class="st6" d="M19.9,29.5h2.5H26l1.4,2.2H20l-3.8,9.1h12l0.8-6.5l2.6,4.1l-0.3,2.4h1.8l1.9,3h-4.1l-1.1,9.2h14.8l-1.2-9.2
			h-4.3l1.9-3h2l-0.3-2.7l2.6-4.1l0.9,6.8h12l-3.8-9.1h-7.6l1.4-2.2h4.4H55c2,0,4.4,1.6,5.3,3.7l9.4,21c0.9,2,0,3.7-2,3.7H39.8H35
			H7.2c-2,0-2.9-1.6-2-3.7l9.4-21C15.5,31.2,17.8,29.5,19.9,29.5L19.9,29.5z M28.7,29.5h3.8c0.2,0.1,0.4,0.2,0.6,0.3l4,6.4l4.1-6.6
			c0.1,0,0.1-0.1,0.2-0.1h3.8l-3.1,5l-0.1-0.5l-4.3,6.8h0.4l-1.2,2l-1.2-2h0.6L32.1,34L32,34.8L28.7,29.5z M27.8,43.9H15l-3.8,9.2
			h15.5L27.8,43.9z M59.4,43.9H46.5l1.2,9.2h15.5L59.4,43.9z"/>
		<path class="st4" d="M37,17.4c-2.5,0-4.6,2.1-4.6,4.6c0,2.5,2.1,4.6,4.6,4.6c2.5,0,4.6-2.1,4.6-4.6C41.6,19.5,39.6,17.4,37,17.4
			L37,17.4z M37,17.4"/>
		<path class="st4" d="M37,9.8c-6.7,0-12.2,5.5-12.2,12.2c0,2.3,0.6,4.6,1.9,6.5L37,45l10.3-16.5c1.2-1.9,1.9-4.2,1.9-6.5
			C49.2,15.3,43.8,9.8,37,9.8L37,9.8z M37,29.6c-4.2,0-7.6-3.4-7.6-7.6c0-4.2,3.4-7.6,7.6-7.6c4.2,0,7.6,3.4,7.6,7.6
			C44.7,26.2,41.2,29.6,37,29.6L37,29.6z M37,29.6"/>
	</g>
</g>
<g id="Слой_9">
	<g>
		<path class="st4" d="M65.9,13.4c0-2.5-2-4.6-4.5-4.6H7.8c-2.5,0-4.7,2.1-4.7,4.6v46.5c0,2.5,2.2,4.6,4.7,4.6h53.6
			c2.5,0,4.5-2.1,4.5-4.6V46.5c0,0-0.1,0-0.1,0H46.5c-1.9,0-3.4-1.5-3.4-3.4v-3.3V33v-3.3c0-1.9,1.5-3.4,3.4-3.4h19.3
			c0,0,0.1,0,0.1,0V13.4z"/>
		<path class="st4" d="M71,31.4c0-1.9-1.5-3.4-3.4-3.4H48.4c-1.9,0-3.4,1.5-3.4,3.4v10.1c0,1.9,1.5,3.4,3.4,3.4h19.3
			c1.9,0,3.4-1.5,3.4-3.4V31.4z M54.6,40.5c-2.2,0-3.9-1.8-3.9-3.9s1.8-3.9,3.9-3.9c2.2,0,3.9,1.8,3.9,3.9S56.8,40.5,54.6,40.5
			L54.6,40.5z"/>
	</g>
</g>
</svg>
