<?xml version="1.0" encoding="utf-8"?>
<!-- Generator: Adobe Illustrator 21.1.0, SVG Export Plug-In . SVG Version: 6.00 Build 0)  -->
<svg version="1.1" id="Layer_1" xmlns="http://www.w3.org/2000/svg" xmlns:xlink="http://www.w3.org/1999/xlink" x="0px" y="0px"
	 viewBox="0 0 199.6 50.9" style="enable-background:new 0 0 199.6 50.9;" xml:space="preserve">
<style type="text/css">
	.st0{fill:#5D5E5E;}
	.st1{fill-rule:evenodd;clip-rule:evenodd;fill:#69C6CA;}
</style>
<path class="st0" d="M177.4,22.7v-5.2h3.2c0.5,0,0.9,0.1,1.2,0.3c0.3,0.2,0.4,0.5,0.4,1c0,0.2,0,0.4-0.1,0.6
	c-0.1,0.2-0.2,0.3-0.4,0.4c0.3,0.2,0.5,0.4,0.7,0.6c0.1,0.2,0.2,0.5,0.2,0.8c0,0.5-0.2,0.9-0.5,1.1c-0.3,0.3-0.8,0.4-1.3,0.4H177.4z
	 M180.9,20.2h-2.6v1.7h2.6c0.3,0,0.5-0.1,0.7-0.2c0.2-0.1,0.2-0.4,0.2-0.6c0-0.3-0.1-0.5-0.2-0.6C181.4,20.3,181.1,20.2,180.9,20.2z
	 M180.6,18.2h-2.4v1.2h2.4c0.3,0,0.5-0.1,0.6-0.2c0.1-0.1,0.2-0.3,0.2-0.5c0-0.2-0.1-0.4-0.2-0.5C181.1,18.3,180.9,18.2,180.6,18.2z
	 M170.5,17.5h0.8v3.3c0,0.5,0.1,0.8,0.4,1c0.2,0.2,0.7,0.3,1.4,0.3c0.7,0,1.2-0.1,1.4-0.3c0.2-0.2,0.4-0.5,0.4-1v-3.3h0.8V21
	c0,0.6-0.2,1.1-0.6,1.4c-0.4,0.3-1.1,0.4-2,0.4c-0.9,0-1.6-0.1-2-0.4c-0.4-0.3-0.6-0.7-0.6-1.4V17.5z M164.8,22.7v-5.2h0.8v4.5h3.9
	v0.8H164.8z M162.8,20.5l0.7,0.5c-0.3,0.6-0.7,1-1.3,1.4c-0.5,0.3-1.1,0.5-1.8,0.5c-1,0-1.8-0.3-2.5-1c-0.7-0.7-1-1.5-1-2.5
	c0-1,0.3-1.9,1-2.5c0.7-0.7,1.5-1,2.5-1c0.6,0,1.2,0.1,1.7,0.4c0.5,0.3,0.9,0.7,1.3,1.2l-0.7,0.5c-0.2-0.4-0.5-0.7-0.9-0.9
	c-0.4-0.2-0.8-0.3-1.3-0.3c-0.8,0-1.4,0.3-1.9,0.8c-0.5,0.5-0.7,1.2-0.7,2c0,0.8,0.2,1.4,0.7,2c0.5,0.5,1.1,0.8,1.9,0.8
	c0.5,0,1-0.1,1.4-0.4C162.2,21.4,162.5,21,162.8,20.5z M147.2,22.7v-5.2h0.8v2.3l2.8-2.3h1.1l-2.2,1.9l2.5,3.3h-0.9l-2.2-2.9
	l-1.1,0.9v2H147.2z M141.2,20.4v2.3h-0.8v-5.2h3.6c0.5,0,0.9,0.1,1.3,0.4c0.3,0.3,0.5,0.6,0.5,1.1c0,0.4-0.1,0.7-0.4,1
	c-0.2,0.3-0.5,0.4-0.9,0.5l1.5,2.3H145l-1.5-2.3H141.2z M141.2,19.7h2.8c0.3,0,0.5-0.1,0.6-0.2c0.1-0.1,0.2-0.3,0.2-0.5
	c0-0.2-0.1-0.4-0.2-0.5c-0.1-0.1-0.4-0.2-0.6-0.2h-2.8V19.7z M137.8,22.7v-5.2h0.8v5.2H137.8z M129.7,22.7V16h4
	c0.7,0,1.2,0.1,1.5,0.4c0.3,0.3,0.5,0.7,0.5,1.3c0,0.3-0.1,0.5-0.2,0.7c-0.1,0.2-0.3,0.4-0.5,0.5c0.4,0.2,0.6,0.5,0.8,0.8
	c0.2,0.3,0.3,0.6,0.3,1c0,0.6-0.2,1.1-0.6,1.5c-0.4,0.4-1,0.5-1.7,0.5H129.7z M130.6,21.9h3.5c0.4,0,0.7-0.1,0.9-0.3
	c0.2-0.2,0.3-0.5,0.3-0.9c0-0.4-0.1-0.7-0.3-0.9c-0.2-0.2-0.5-0.3-0.9-0.3h-3.5V21.9z M130.6,18.6h3.2c0.4,0,0.6-0.1,0.8-0.2
	c0.2-0.2,0.3-0.4,0.3-0.7c0-0.3-0.1-0.6-0.3-0.7c-0.2-0.2-0.5-0.2-0.8-0.2h-3.2V18.6z M123.3,22.7v-5.2h0.4l3.3,3.7v-3.7h0.8v5.2
	h-0.4l-3.3-3.6v3.6H123.3z M117,22.7v-5.2h4.9v0.8h-4.1v1.3h2.7v0.8h-2.7v1.6h4.3v0.8H117z M111.4,22.7v-5.2h0.8v4.5h3.9v0.8H111.4z
	 M105.1,22.7v-5.2h4.9v0.8h-4.1v1.3h2.7v0.8h-2.7v1.6h4.3v0.8H105.1z M97.6,22.7V16h0.8v2.7h4V16h0.8v6.7h-0.8v-3.3h-4v3.3H97.6z"/>
<path class="st0" d="M140.9,30.9v-4.1l2.4,0v0.6h-1.7v3.5V31h-0.1L140.9,30.9L140.9,30.9L140.9,30.9z M137.8,30.4
	c0.2,0,0.4,0,0.6-0.1c0.2-0.1,0.3-0.2,0.5-0.3c0.1-0.1,0.2-0.3,0.3-0.5c0.1-0.2,0.1-0.4,0.1-0.6c0-0.2,0-0.4-0.1-0.6
	c-0.1-0.2-0.2-0.3-0.3-0.5c-0.1-0.1-0.3-0.2-0.5-0.3c-0.2-0.1-0.4-0.1-0.6-0.1c-0.2,0-0.4,0-0.6,0.1c-0.2,0.1-0.3,0.2-0.5,0.3
	c-0.1,0.1-0.2,0.3-0.3,0.5c-0.1,0.2-0.1,0.4-0.1,0.6c0,0.2,0,0.4,0.1,0.6c0.1,0.2,0.2,0.3,0.3,0.5c0.1,0.1,0.3,0.2,0.5,0.3
	C137.4,30.3,137.6,30.4,137.8,30.4z M137.8,31c-0.3,0-0.6,0-0.8-0.1c-0.2-0.1-0.5-0.2-0.7-0.4c-0.2-0.2-0.3-0.4-0.4-0.7
	c-0.1-0.2-0.1-0.5-0.1-0.8c0-0.3,0-0.6,0.1-0.8c0.1-0.2,0.2-0.5,0.4-0.7c0.2-0.2,0.4-0.3,0.7-0.4c0.2-0.1,0.5-0.1,0.8-0.1
	c0.3,0,0.6,0,0.8,0.1c0.2,0.1,0.5,0.2,0.7,0.4c0.2,0.2,0.3,0.4,0.4,0.7c0.1,0.2,0.1,0.5,0.1,0.8c0,0.3,0,0.6-0.1,0.8
	c-0.1,0.2-0.2,0.5-0.4,0.7c-0.2,0.2-0.4,0.3-0.7,0.4C138.3,30.9,138.1,31,137.8,31z M123.2,30.9v-3.5l-1.5,0v-0.6h1.6h0.5l1.6,0
	l0,0.6h-1.5v3.5V31h-0.1L123.2,30.9L123.2,30.9L123.2,30.9z M152.9,26.9v4V31h-0.1h-0.5h-0.1v-0.1v-1.7H151l-1.3,1.7l0,0h0h-0.6H149
	l0.1-0.1l1.2-1.7c-0.1,0-0.2,0-0.3-0.1c-0.1-0.1-0.3-0.1-0.4-0.3c-0.1-0.1-0.2-0.2-0.3-0.4c-0.1-0.1-0.1-0.3-0.1-0.5
	c0-0.2,0-0.3,0.1-0.5h0c0.1-0.1,0.2-0.3,0.3-0.4c0.1-0.1,0.3-0.2,0.4-0.2c0.2-0.1,0.3-0.1,0.5-0.1h1.7v0h0.1L152.9,26.9L152.9,26.9
	L152.9,26.9L152.9,26.9z M152.3,28.6v-1.2h-1.7c-0.1,0-0.2,0-0.3,0c-0.1,0-0.2,0.1-0.2,0.1v0c-0.1,0.1-0.1,0.1-0.1,0.2
	c0,0.1,0,0.2,0,0.3c0,0.1,0,0.2,0,0.3c0,0.1,0.1,0.1,0.1,0.2c0.1,0.1,0.3,0.2,0.5,0.2H152.3z M147.8,31v-4.2h-0.3l-2.6,2.9v-2.9
	h-0.6V31h0.3l2.6-2.9V31H147.8z M128.2,30.4c0.2,0,0.4,0,0.6-0.1c0.2-0.1,0.3-0.2,0.5-0.3c0.1-0.1,0.2-0.3,0.3-0.5
	c0.1-0.2,0.1-0.4,0.1-0.6c0-0.2,0-0.4-0.1-0.6c-0.1-0.2-0.2-0.4-0.3-0.5c-0.1-0.1-0.3-0.3-0.5-0.3c-0.2-0.1-0.4-0.1-0.6-0.1
	c-0.2,0-0.4,0-0.6,0.1c-0.2,0.1-0.3,0.2-0.5,0.3c-0.1,0.1-0.2,0.3-0.3,0.5c-0.1,0.2-0.1,0.4-0.1,0.6c0,0.2,0,0.4,0.1,0.6
	c0.1,0.2,0.2,0.4,0.3,0.5c0.1,0.1,0.3,0.3,0.5,0.3C127.8,30.4,128,30.4,128.2,30.4z M128.2,31c-0.3,0-0.6-0.1-0.9-0.2
	c-0.3-0.1-0.5-0.3-0.7-0.5c-0.2-0.2-0.4-0.4-0.5-0.7c-0.1-0.3-0.2-0.5-0.2-0.9c0-0.3,0.1-0.6,0.2-0.9c0.1-0.3,0.3-0.5,0.5-0.7
	c0.2-0.2,0.4-0.4,0.7-0.5c0.3-0.1,0.5-0.2,0.9-0.2c0.3,0,0.6,0.1,0.9,0.2c0.3,0.1,0.5,0.3,0.7,0.5c0.2,0.2,0.4,0.4,0.5,0.7
	c0.1,0.3,0.2,0.5,0.2,0.9c0,0.3-0.1,0.6-0.2,0.9c-0.1,0.3-0.3,0.5-0.5,0.7c-0.2,0.2-0.4,0.4-0.7,0.5C128.8,31,128.5,31,128.2,31z
	 M117.6,30.9v-4v-0.1h0.1h3.2h0.1v0.1v0.5v0.1h-0.1h-2.6v1h1.5h0.1v0.1V29v0.1h-0.1h-1.5v1.3h2.8h0.1v0.1v0.5V31H121L117.6,30.9
	L117.6,30.9L117.6,30.9z M112,30.9v-4v-0.1h0.1h0.5h0l0,0l1.6,2.4l1.6-2.4l0,0h0h0.5h0.1v0.1v4V31h-0.1h-0.5h-0.1v-0.1V28l-1.5,2.2
	l-0.1,0.1l-0.1-0.1l-1.5-2.2v2.9V31h-0.1L112,30.9L112,30.9L112,30.9z M110.4,29.5l0.4,0.3l0,0l0,0.1c-0.1,0.2-0.2,0.3-0.3,0.5
	c-0.1,0.1-0.3,0.2-0.4,0.3v0c-0.2,0.1-0.3,0.2-0.5,0.2c-0.2,0-0.4,0.1-0.6,0.1c-0.3,0-0.6-0.1-0.8-0.1c-0.2-0.1-0.5-0.2-0.7-0.4h0
	c-0.2-0.2-0.3-0.4-0.4-0.7c-0.1-0.3-0.1-0.5-0.1-0.8c0-0.3,0-0.6,0.1-0.8c0.1-0.3,0.2-0.5,0.4-0.7c0.2-0.2,0.4-0.3,0.7-0.4
	c0.2-0.1,0.5-0.1,0.8-0.1c0.2,0,0.4,0,0.5,0.1c0.2,0,0.3,0.1,0.5,0.2c0.2,0.1,0.3,0.2,0.4,0.3v0c0.1,0.1,0.2,0.2,0.3,0.4l0,0.1
	l-0.1,0l-0.4,0.3l-0.1,0l0-0.1c-0.1-0.1-0.1-0.2-0.2-0.3v0c-0.1-0.1-0.2-0.2-0.3-0.2c-0.1-0.1-0.2-0.1-0.3-0.1c-0.1,0-0.3,0-0.4,0
	c-0.2,0-0.4,0-0.6,0.1c-0.2,0.1-0.3,0.2-0.5,0.3c-0.1,0.1-0.2,0.3-0.3,0.5c-0.1,0.2-0.1,0.4-0.1,0.6c0,0.2,0,0.4,0.1,0.6
	c0.1,0.2,0.2,0.3,0.3,0.5c0.1,0.1,0.3,0.2,0.5,0.3c0.2,0.1,0.4,0.1,0.6,0.1c0.1,0,0.3,0,0.4-0.1c0.1,0,0.2-0.1,0.4-0.2v0
	c0.1-0.1,0.2-0.2,0.3-0.3C110.1,29.8,110.2,29.7,110.4,29.5L110.4,29.5L110.4,29.5z M103.9,30.4c0.2,0,0.4,0,0.6-0.1
	c0.2-0.1,0.3-0.2,0.5-0.3c0.1-0.1,0.2-0.3,0.3-0.5c0.1-0.2,0.1-0.4,0.1-0.6c0-0.2,0-0.4-0.1-0.6c-0.1-0.2-0.2-0.3-0.3-0.5
	c-0.1-0.1-0.3-0.2-0.5-0.3c-0.2-0.1-0.4-0.1-0.6-0.1c-0.2,0-0.4,0-0.6,0.1c-0.2,0.1-0.3,0.2-0.5,0.3c-0.1,0.1-0.2,0.3-0.3,0.5
	c-0.1,0.2-0.1,0.4-0.1,0.6c0,0.2,0,0.4,0.1,0.6c0.1,0.2,0.2,0.3,0.3,0.5c0.1,0.1,0.3,0.2,0.5,0.3C103.5,30.4,103.7,30.4,103.9,30.4z
	 M103.9,31c-0.3,0-0.6,0-0.8-0.1c-0.2-0.1-0.5-0.2-0.7-0.4c-0.2-0.2-0.3-0.4-0.4-0.7c-0.1-0.2-0.1-0.5-0.1-0.8c0-0.3,0-0.6,0.1-0.8
	s0.2-0.5,0.4-0.7c0.2-0.2,0.4-0.3,0.7-0.4c0.2-0.1,0.5-0.1,0.8-0.1c0.3,0,0.6,0,0.8,0.1c0.2,0.1,0.5,0.2,0.7,0.4
	c0.2,0.2,0.3,0.4,0.4,0.7c0.1,0.2,0.1,0.5,0.1,0.8c0,0.3,0,0.6-0.1,0.8c-0.1,0.3-0.2,0.5-0.4,0.7c-0.2,0.2-0.4,0.3-0.7,0.4
	C104.5,30.9,104.2,31,103.9,31z M101.5,31l-0.3,0h-0.4h0l0,0l-1.6-2.2l-0.9,0.8v1.4V31h-0.1h-0.5h-0.1v-0.1v-4v-0.1h0.1h0.5h0.1v0.1
	v1.9l2.2-1.9l0,0h0h0.7h0.2l-0.1,0.1l-1.6,1.4L101.5,31z M130.8,30.9l2-4l0,0h0h0.4h0l0,0l2,4l0,0.1h-0.1h-0.5h0l0,0l-0.5-1
	l-1.1-2.2l-1.6,3.3l0,0h0h-0.5h-0.1L130.8,30.9z"/>
<path class="st1" d="M38.2,43l12.1,0c6.7,0,13.7-2.2,16.3-8.5c1.2-3.1,1.4-7.1,0.2-10.4c-0.4-1-1-2.1-1.7-3c-0.9-1.1-3-3.3-4.2-3.6
	c1.9-2.8,2.7-5.5,1.8-9.1c-1-4-4.3-6.5-8.2-7.6c-5.8-1.4-10-0.8-16.2-0.8C38.2,43.1,38.2,0.1,38.2,43 M59,16.6
	c-2.3-0.5-2.5-1.2-6.7-1.3c-6.2,0-5.8,6.1,0,6.1c1.9,0,2.7,0,4.5-0.7c0.5-0.2,0.9-0.4,1.3-0.7l1.2-0.9l2.2,1.6
	c3,2.6,3.8,5.1,3.8,9.4c0,7.1-7,10.9-13.7,10.9h-6.3V2.1c4.9,0,8.6-0.2,12.5,2.8l0.5,0.5c1.5,1.8,2.3,3.4,2.3,6
	C60.6,14.8,59.4,16.1,59,16.6z M53.1,19.3c-0.4,0-1.5-0.2-1.8-0.3c-0.6-0.2-1.1-0.3-1.3-0.9c1.2-1.8,6.7-0.2,7.1-0.1
	C56.7,18.7,54.3,19.3,53.1,19.3z"/>
<path class="st1" d="M31.8,10.4v7.3h-12l0.1-7.6c0-2,1.2-1.6-4.7-1.6l0.1,14.1c0,4.1-0.1,7.7-0.1,11.8c5.8,0,4.7,0.3,4.7-1.3
	l-0.1-13.9h12c0,1.5-0.2,14.5,0,15c0.1,0.3,0.4,0.5,0.8,0.5c0.4,0,0.9-0.5,0.9-0.9V9.4c0-0.6-0.3-1-0.9-1
	C31.3,8.4,31.8,9.5,31.8,10.4"/>
<path class="st1" d="M69.5,21.7c0,4.2,1.4,7.3,3.7,9.6c2.5,2.5,5.4,3.8,9.2,3.8c3.5,0,6-1.3,8.1-3.1c0.3-0.3,0.3-0.3,0.5-0.6
	c0.7-0.9,0.5-0.3,1.4-1.9c0.4-0.7,0.8-2.3-0.4-2.2c-0.3,0-0.5,0.2-0.9,1c-0.5,1.2-1.6,2.4-2.6,3.2c-0.8,0.6-1.5,1-2.5,1.4
	c-0.5,0.2-0.9,0.3-1.5,0.4c-6.9,1.4-10.3-4.2-10.3-10.7c0-4.6,0.5-9.4,4.3-11.7c3.4-2,9-1.3,11.6,2.4c0.7,1,1.2,0.8,1.5,0.4
	c0.3-0.4,0.3-0.7,0-1.1c-1.1-2-6.8-6.5-14.2-3.4c-0.5,0.2-1.2,0.6-1.7,0.8c-1.5,0.9-3,2.4-4,3.9C70.6,15.7,69.5,18.4,69.5,21.7"/>
<polygon class="st0" points="187.4,19.6 199.6,19.6 199.6,50.9 137,50.9 137,50.3 199.1,50.3 199.1,20.2 187.4,20.2 "/>
<polygon class="st0" points="12.2,19.6 0,19.6 0,50.9 137,50.9 137,50.3 0.6,50.3 0.6,20.2 12.2,20.2 "/>
</svg>
