<?xml version="1.0" encoding="iso-8859-1"?>
<!-- Generator: Adobe Illustrator 21.1.0, SVG Export Plug-In . SVG Version: 6.00 Build 0)  -->
<svg version="1.1" id="Capa_1" xmlns="http://www.w3.org/2000/svg" xmlns:xlink="http://www.w3.org/1999/xlink" x="0px" y="0px"
	 viewBox="-49 141 512 512" style="enable-background:new -49 141 512 512;" xml:space="preserve">
<path style="fill:#10C9C3;" d="M303,653H-17c-17.673,0-32-14.327-32-32V237c0.001-2.829,1.125-5.541,3.125-7.541l85.333-85.333
	c2-2.001,4.713-3.125,7.541-3.125h256c17.673,0,32,14.327,32,32l0,0v160h-21.333V173c0-5.891-4.776-10.667-10.667-10.667H51.416
	l-79.083,79.083V621c0,5.891,4.776,10.667,10.667,10.667h320c5.891,0,10.667-4.776,10.667-10.667V514.333H335V621
	C335,638.673,320.673,653,303,653z"/>
<path style="fill:#10C9C3;" d="M25.667,247.667H4.333v-21.333h21.333c5.891,0,10.667-4.776,10.667-10.667v-64h21.333v64
	C57.667,233.34,43.34,247.667,25.667,247.667z"/>
<path style="fill:#10C9C3;" d="M-6.333,589h64v21.333h-64V589z"/>
<path style="fill:#10C9C3;" d="M79,589h21.333v21.333H79V589z"/>
<path style="fill:#10C9C3;" d="M377.667,439.667H196.333c-5.891,0-10.667-4.776-10.667-10.667v-64
	c0-5.891,4.776-10.667,10.667-10.667h192C429.551,354.38,462.953,387.782,463,429h-21.333
	c-0.035-29.441-23.893-53.298-53.333-53.333H207v42.667h170.667V439.667z"/>
<path style="fill:#10C9C3;" d="M452.333,621h-96v-21.333h85.333V429H463v181.333C463,616.224,458.224,621,452.333,621z"/>
<path style="fill:#10C9C3;" d="M377.816,612.083L358.04,493.469c-25.451,0.928-93.589,0.352-124.213-28.011
	c-10.419-9.234-16.316-22.537-16.16-36.459H239c-0.099,7.964,3.306,15.569,9.312,20.8c25.259,23.467,93.643,23.723,117.877,21.899
	c5.507-0.417,10.422,3.438,11.328,8.885l21.333,128L377.816,612.083z"/>
<path style="fill:#10C9C3;" d="M399,418.333h21.333v21.333H399V418.333z"/>
<path style="fill:#10C9C3;" d="M196.333,429h-42.667c-17.673,0-32-14.327-32-32c0-17.673,14.327-32,32-32h42.667v21.333h-42.667
	c-5.891,0-10.667,4.776-10.667,10.667c0,5.891,4.776,10.667,10.667,10.667h42.667V429z"/>
<path style="fill:#10C9C3;" d="M47,386.333h85.333v21.333H47V386.333z"/>
<path style="fill:#10C9C3;" d="M164.333,343.667H143V333c0.001-2.829,1.125-5.541,3.125-7.541l35.125-35.125l-35.125-35.125
	c-2.001-2-3.125-4.713-3.125-7.541v-64h21.333v59.584l39.541,39.541c4.164,4.165,4.164,10.917,0,15.083l-39.541,39.541V343.667z"/>
<path style="fill:#10C9C3;" d="M164.333,610.333H143v-59.584l-39.541-39.541c-4.164-4.165-4.164-10.917,0-15.083L143,456.584v-6.251
	h21.333V461c-0.001,2.829-1.125,5.541-3.125,7.541l-35.125,35.125l35.125,35.125c2.001,2,3.125,4.713,3.125,7.541V610.333z"/>
</svg>
