<?xml version="1.0" encoding="iso-8859-1"?>
<!-- Generator: Adobe Illustrator 21.1.0, SVG Export Plug-In . SVG Version: 6.00 Build 0)  -->
<svg version="1.1" id="Capa_1" xmlns="http://www.w3.org/2000/svg" xmlns:xlink="http://www.w3.org/1999/xlink" x="0px" y="0px"
	 viewBox="-49 141 512 512" style="enable-background:new -49 141 512 512;" xml:space="preserve">
<path style="fill:#10C9C3;" d="M-49,247.667h21.333v298.667H-49V247.667z"/>
<path style="fill:#10C9C3;" d="M25.667,621C-15.571,621-49,587.571-49,546.333c0-41.237,33.429-74.667,74.667-74.667
	s74.667,33.429,74.667,74.667H79C79,516.878,55.122,493,25.667,493s-53.333,23.878-53.333,53.333s23.878,53.333,53.333,53.333V621z"
	/>
<path style="fill:#10C9C3;" d="M388.333,621v-21.333c29.441-0.035,53.298-23.893,53.333-53.333V247.667h-53.333v-21.333h64
	c5.891,0,10.667,4.776,10.667,10.667v309.333C462.947,587.549,429.549,620.947,388.333,621z"/>
<path style="fill:#10C9C3;" d="M25.667,599.667h106.667V621H25.667V599.667z"/>
<path style="fill:#10C9C3;" d="M100.333,450.333H79V247.667c0-29.455-23.878-53.333-53.333-53.333s-53.333,23.878-53.333,53.333H-49
	C-49,206.429-15.571,173,25.667,173s74.667,33.429,74.667,74.667V450.333z"/>
<path style="fill:#10C9C3;" d="M175,333h42.667v21.333H175V333z"/>
<path style="fill:#10C9C3;" d="M175,439.667h42.667V461H175V439.667z"/>
<path style="fill:#10C9C3;" d="M175,546.333h42.667v21.333H175V546.333z"/>
<path style="fill:#10C9C3;" d="M175,226.333h42.667v21.333H175V226.333z"/>
<path style="fill:#10C9C3;" d="M249.667,642.333h-64c-11.782,0-21.333-9.551-21.333-21.333V173c0-11.782,9.551-21.333,21.333-21.333
	h64c11.782,0,21.333,9.551,21.333,21.333v448C271,632.782,261.449,642.333,249.667,642.333z M185.667,173v448h64V173H185.667z"/>
<path style="fill:#10C9C3;" d="M175,386.333h53.333v21.333H175V386.333z"/>
<path style="fill:#10C9C3;" d="M175,493h53.333v21.333H175V493z"/>
<path style="fill:#10C9C3;" d="M175,279.667h53.333V301H175V279.667z"/>
<path style="fill:#10C9C3;" d="M303,546.333h42.667v21.333H303V546.333z"/>
<path style="fill:#10C9C3;" d="M345.667,642.333H303c-5.891,0-10.667-4.776-10.667-10.667V194.333
	c0.003-2.106,0.627-4.165,1.792-5.92l21.333-32c3.666-4.901,10.612-5.903,15.513-2.236c0.849,0.635,1.602,1.388,2.236,2.236
	l21.333,32c1.165,1.755,1.789,3.814,1.792,5.92v437.333C356.333,637.558,351.558,642.333,345.667,642.333z M313.667,621H335V197.533
	l-10.667-16l-10.667,16V621z"/>
<path style="fill:#10C9C3;" d="M89.667,226.333h42.667v21.333H89.667V226.333z"/>
</svg>
