<?xml version="1.0" encoding="iso-8859-1"?>
<!-- Generator: Adobe Illustrator 21.1.0, SVG Export Plug-In . SVG Version: 6.00 Build 0)  -->
<svg version="1.1" id="&#x421;&#x43B;&#x43E;&#x439;_1"
	 xmlns="http://www.w3.org/2000/svg" xmlns:xlink="http://www.w3.org/1999/xlink" x="0px" y="0px" viewBox="0 0 32.001 32.167"
	 style="enable-background:new 0 0 32.001 32.167;" xml:space="preserve">
<g>
	<g>
		<defs>
			<rect id="SVGID_1_" y="-0.833" width="32" height="33"/>
		</defs>
		<clipPath id="SVGID_2_">
			<use xlink:href="#SVGID_1_"  style="overflow:visible;"/>
		</clipPath>
		<path style="clip-path:url(#SVGID_2_);fill:#37BFBD;" d="M29.859,8.166C25.441,0.513,15.656-2.112,8.004,2.31
			C0.352,6.724-2.273,16.513,2.148,24.166c4.414,7.652,14.204,10.273,21.856,5.855C31.656,25.603,34.277,15.818,29.859,8.166
			L29.859,8.166z M22.402,27.248c-6.121,3.535-13.949,1.437-17.484-4.684C1.383,16.443,3.48,8.615,9.602,5.08
			c6.121-3.535,13.953-1.438,17.484,4.683C30.621,15.885,28.523,23.713,22.402,27.248L22.402,27.248z M21.762,15.513l-8.379-4.886
			c-0.762-0.446-1.379-0.09-1.375,0.793l0.043,9.699c0.004,0.887,0.629,1.246,1.394,0.801l8.313-4.801
			C22.523,16.678,22.527,15.959,21.762,15.513L21.762,15.513z M21.762,15.513"/>
	</g>
</g>
</svg>
