<?xml version="1.0" encoding="utf-8"?>
<!-- Generator: Adobe Illustrator 22.0.0, SVG Export Plug-In . SVG Version: 6.00 Build 0)  -->
<svg version="1.1" id="Слой_1" xmlns="http://www.w3.org/2000/svg" xmlns:xlink="http://www.w3.org/1999/xlink" x="0px" y="0px"
	 viewBox="0 0 75 75" style="enable-background:new 0 0 75 75;" xml:space="preserve">
<style type="text/css">
	.st0{fill-rule:evenodd;clip-rule:evenodd;fill:#41B9BA;}
	.st1{fill:#41B9BA;}
</style>
<g>
	<path class="st0" d="M48.4,14.7c-9.4-4.8-20.8-2.9-28.3,4.5c-8.7,8.7-9.6,22.5-2,32.2c0.3,0.3,0.7,0.5,1.1,0.5
		c0.3,0,0.6-0.1,0.8-0.3c0.6-0.5,0.7-1.3,0.2-1.9c-6.7-8.6-5.9-20.9,1.8-28.7c6.6-6.6,16.7-8.3,25.1-4c0.7,0.3,1.5,0.1,1.8-0.6
		C49.3,15.8,49,15,48.4,14.7L48.4,14.7z"/>
	<path class="st0" d="M59.2,25.5c-0.3-0.7-1.2-0.9-1.8-0.6c-0.7,0.3-0.9,1.1-0.6,1.8c4.2,8.4,2.6,18.5-4,25.1
		c-7.7,7.7-20,8.5-28.6,1.8c-0.6-0.5-1.4-0.4-1.9,0.2c-0.5,0.6-0.4,1.4,0.2,1.9c4.4,3.4,9.7,5.1,14.9,5.1c6.3,0,12.5-2.4,17.3-7.1
		C62.1,46.3,63.9,34.9,59.2,25.5L59.2,25.5z"/>
	<path class="st0" d="M55.7,20.3c-0.3-0.4-0.7-0.8-1-1.1c-0.4-0.4-0.7-0.7-1.1-1c-0.6-0.5-1.4-0.4-1.9,0.1c-0.5,0.6-0.4,1.4,0.1,1.9
		c0.3,0.3,0.7,0.6,1,0.9c0.3,0.3,0.6,0.7,0.9,1c0.3,0.3,0.6,0.5,1,0.5c0.3,0,0.6-0.1,0.9-0.3C56.1,21.7,56.2,20.9,55.7,20.3
		L55.7,20.3z"/>
	<path class="st0" d="M69.3,38.9c0.9-1.5,0.9-3.3,0-4.8l-1.8-2.9c-0.2-0.4-0.3-0.8-0.3-1.3l0.5-3.4c0.3-1.7-0.4-3.4-1.8-4.4l-2.8-2
		c-0.4-0.3-0.6-0.7-0.7-1.1l-0.8-3.3c-0.4-1.7-1.7-3-3.4-3.4l-3.3-0.8c-0.4-0.1-0.8-0.4-1.1-0.7l-2-2.8c-1-1.4-2.7-2.1-4.4-1.8
		L44,6.7c-0.4,0.1-0.9,0-1.3-0.3l-2.9-1.8c-1.5-0.9-3.3-0.9-4.8,0l-2.9,1.8c-0.4,0.2-0.8,0.3-1.3,0.3l-3.4-0.5
		C25.8,5.9,24.1,6.6,23,8l-2,2.8c-0.3,0.4-0.7,0.6-1.1,0.7l-3.3,0.8c-1.7,0.4-3,1.7-3.4,3.4L12.4,19c-0.1,0.4-0.4,0.8-0.7,1.1
		l-2.8,2c-1.4,1-2.1,2.7-1.8,4.4l0.5,3.4c0.1,0.4,0,0.9-0.3,1.3l-1.8,2.9c-0.9,1.5-0.9,3.3,0,4.8l1.8,2.9c0.2,0.4,0.3,0.8,0.3,1.3
		l-0.5,3.4c-0.3,1.7,0.4,3.4,1.8,4.4l2.8,2c0.4,0.3,0.6,0.7,0.7,1.1l0.8,3.3c0.4,1.7,1.7,3,3.4,3.4L18,61c1.6,0.3,2.1,0.3,3,1.2
		l2,2.8c0.2,0.3,0.4,0.5,0.6,0.7c0,0,1.1,1,2.4,1.1c0.1,0,0.1,0,0.2,0c0.4,0,0.8,0,1.2,0l3.4-0.5c0.2,0,0.4,0,0.6,0
		c1.6,0.5,2.3,1.2,3.6,2c0.7,0.4,1.6,0.7,2.4,0.7c0.8,0,1.7-0.2,2.4-0.7l1.3-0.8c1-0.8,1.8-1.3,2.9-1.3l3.4,0.5
		c0.4,0.1,0.9,0.1,1.3,0l0,0c0,0,0.1,0,0.1,0l0,0c0.3,0,1.6-0.2,2.4-1.2c0-0.1,0.1-0.1,0.1-0.1c0.2-0.2,0.3-0.3,0.4-0.5l2-2.8
		c0.1-0.2,0.3-0.3,0.5-0.4c0,0,1.2-0.8,2.6-0.8l1.3-0.3c1.7-0.4,3-1.7,3.4-3.4l0.8-3.3c0.1-0.4,0.4-0.8,0.7-1.1l2.8-2
		c1.4-1,2.1-2.7,1.8-4.4l-0.5-3.4c-0.1-0.4,0-0.9,0.3-1.3L69.3,38.9z M66.9,37.5l-1.8,2.9c-0.6,0.9-0.8,2-0.6,3.1l0.5,3.4
		c0.1,0.7-0.2,1.4-0.8,1.8l-2.8,2c-0.9,0.6-1.5,1.6-1.8,2.6L59,56.7c-0.2,0.7-0.7,1.2-1.4,1.4l-3.3,0.8c-1.1,0.3-2,0.9-2.6,1.8
		l-2,2.8c-0.4,0.6-1.1,0.9-1.8,0.8l-3.4-0.5c-1.1-0.2-2.2,0.1-3.1,0.6L38.4,66c-0.6,0.4-1.4,0.4-2,0l-2.9-1.8
		c-0.7-0.4-1.6-0.7-2.4-0.7c-0.2,0-0.5,0-0.7,0.1l-3.4,0.5c-0.7,0.1-1.4-0.2-1.8-0.8l-2-2.8c-0.6-0.9-1.6-1.5-2.6-1.8l-3.3-0.8
		c-0.7-0.2-1.2-0.7-1.4-1.4l-0.8-3.3c-0.3-1.1-0.9-2-1.8-2.6l-2.8-2c-0.6-0.4-0.9-1.1-0.8-1.8l0.5-3.4c0.2-1.1,0-2.2-0.6-3.1
		l-1.8-2.9c-0.4-0.6-0.4-1.4,0-2l1.8-2.9c0.6-0.9,0.8-2,0.6-3.1l-0.5-3.4c-0.1-0.7,0.2-1.4,0.8-1.8l2.8-2c0.9-0.6,1.5-1.6,1.8-2.6
		l0.8-3.3c0.2-0.7,0.7-1.2,1.4-1.4l3.3-0.8c1.1-0.3,2-0.9,2.6-1.8l2-2.8c0.4-0.6,1.1-0.9,1.8-0.8l3.4,0.5c1.1,0.2,2.2,0,3.1-0.6
		L36.5,7c0.6-0.4,1.4-0.4,2,0l2.9,1.8c0.9,0.6,2,0.8,3.1,0.6l3.4-0.5c0.7-0.1,1.4,0.2,1.8,0.8l2,2.8c0.6,0.9,1.6,1.5,2.6,1.8
		l3.3,0.8c0.7,0.2,1.2,0.7,1.4,1.4l0.8,3.3c0.3,1.1,0.9,2,1.8,2.6l2.8,2c0.6,0.4,0.9,1.1,0.8,1.8l-0.5,3.4c-0.2,1.1,0.1,2.2,0.6,3.1
		l1.8,2.9C67.3,36.1,67.3,36.9,66.9,37.5L66.9,37.5z"/>
	<path class="st1" d="M46.7,28L34.5,40.2L33.6,41l-0.9-0.9l-3.3-3.3l0,0c-0.4-0.4-0.8-0.5-1.3-0.5c-0.5,0-1,0.2-1.3,0.5l0,0l0,0
		c-0.4,0.4-0.5,0.8-0.5,1.3s0.2,1,0.5,1.3l5.5,5.5c0.2,0.2,0.4,0.3,0.6,0.4c0.2,0.1,0.5,0.1,0.7,0.1c0.3,0,0.5,0,0.7-0.1
		c0.2-0.1,0.4-0.2,0.6-0.4l14.4-14.4v0c0.4-0.4,0.5-0.8,0.5-1.3s-0.2-1-0.5-1.3h0l0,0c-0.4-0.4-0.8-0.5-1.3-0.5
		C47.5,27.4,47,27.6,46.7,28L46.7,28L46.7,28z M33.6,37.6l11.3-11.3l0,0h0c0.8-0.8,1.9-1.3,3-1.3c1.1,0,2.2,0.4,3,1.3h0h0
		c0.8,0.8,1.3,1.9,1.3,3.1c0,1.1-0.4,2.2-1.3,3v0L36.7,46.7c-0.4,0.4-0.9,0.7-1.4,0.9c-0.5,0.2-1.1,0.3-1.6,0.3s-1.1-0.1-1.6-0.3
		c-0.5-0.2-1-0.5-1.4-0.9l-5.5-5.5c-0.8-0.8-1.3-1.9-1.3-3.1c0-1.1,0.4-2.2,1.3-3v0l0,0c0.8-0.8,1.9-1.3,3.1-1.3
		c1.1,0,2.2,0.4,3.1,1.3l0,0L33.6,37.6z"/>
</g>
</svg>
