<?xml version="1.0" encoding="iso-8859-1"?>
<!-- Generator: Adobe Illustrator 21.1.0, SVG Export Plug-In . SVG Version: 6.00 Build 0)  -->
<svg version="1.1" id="&#x421;&#x43B;&#x43E;&#x439;_1"
	 xmlns="http://www.w3.org/2000/svg" xmlns:xlink="http://www.w3.org/1999/xlink" x="0px" y="0px" viewBox="0 0 200.88 201"
	 style="enable-background:new 0 0 200.88 201;" xml:space="preserve">
<g>
	<g>
		<defs>
			<rect id="SVGID_1_" width="200.88" height="201"/>
		</defs>
		<clipPath id="SVGID_2_">
			<use xlink:href="#SVGID_1_"  style="overflow:visible;"/>
		</clipPath>
		<path style="clip-path:url(#SVGID_2_);fill-rule:evenodd;clip-rule:evenodd;fill:#898989;" d="M195.348,171.684l-43.504-43.504
			c-0.231-0.23-0.5-0.391-0.742-0.605c8.558-12.985,13.554-28.532,13.554-45.246C164.656,36.86,127.797,0,82.328,0S0,36.86,0,82.329
			c0,45.468,36.859,82.328,82.328,82.328c16.715,0,32.258-4.996,45.242-13.555c0.215,0.242,0.375,0.512,0.61,0.742l43.504,43.504
			c6.535,6.535,17.128,6.535,23.664,0C201.883,188.813,201.883,178.219,195.348,171.684L195.348,171.684z M82.328,136.118
			c-29.707,0-53.789-24.082-53.789-53.789c0-29.708,24.082-53.79,53.789-53.79s53.789,24.082,53.789,53.79
			C136.117,112.036,112.035,136.118,82.328,136.118L82.328,136.118z M82.328,136.118"/>
	</g>
</g>
</svg>
