<?xml version="1.0" encoding="iso-8859-1"?>
<!-- Generator: Adobe Illustrator 21.1.0, SVG Export Plug-In . SVG Version: 6.00 Build 0)  -->
<svg version="1.1" id="Capa_1" xmlns="http://www.w3.org/2000/svg" xmlns:xlink="http://www.w3.org/1999/xlink" x="0px" y="0px"
	 viewBox="-49 141 512 512" style="enable-background:new -49 141 512 512;" xml:space="preserve">
<path style="fill:#10C9C3;" d="M15,343.667H-6.333v-85.333c0-17.673,14.327-32,32-32h256v21.333h-256
	c-5.891,0-10.667,4.776-10.667,10.667V343.667z"/>
<path style="fill:#10C9C3;" d="M132.333,567.667H25.667c-17.673,0-32-14.327-32-32V429H15v106.667
	c0,5.891,4.776,10.667,10.667,10.667h106.667V567.667z"/>
<path style="fill:#10C9C3;" d="M220.717,653c-2.829-0.001-5.541-1.125-7.541-3.125L-45.875,390.824
	c-4.164-4.165-4.164-10.917,0-15.083l60.949-60.949c4.165-4.164,10.917-4.164,15.083,0l259.051,259.051
	c4.164,4.165,4.164,10.917,0,15.083l-60.949,60.949C226.259,651.875,223.546,652.999,220.717,653z M-23.251,383.283l243.968,243.968
	l45.867-45.867L22.616,337.416L-23.251,383.283z"/>
<path style="fill:#10C9C3;" d="M420.333,631.667h-32c-5.891,0-10.667-4.776-10.667-10.667v-53.333H260.333v-21.333h160
	C443.898,546.333,463,565.436,463,589C463,612.564,443.898,631.667,420.333,631.667z M399,610.333h21.333
	c11.782,0,21.333-9.551,21.333-21.333c0-11.782-9.551-21.333-21.333-21.333H399V610.333z"/>
<path style="fill:#10C9C3;" d="M463,589h-21.333V269c0-11.782-9.551-21.333-21.333-21.333H367v-21.333h53.333
	C443.898,226.333,463,245.436,463,269V589z"/>
<rect x="115.044" y="455.667" transform="matrix(0.7071 -0.7071 0.7071 0.7071 -289.4244 233.9359)" style="fill:#10C9C3;" width="45.259" height="21.333"/>
<rect x="72.379" y="413.001" transform="matrix(0.7071 -0.7071 0.7071 0.7071 -271.7509 191.2702)" style="fill:#10C9C3;" width="45.259" height="21.333"/>
<rect x="157.688" y="498.334" transform="matrix(0.7071 -0.7071 0.7071 0.7071 -307.1042 276.5866)" style="fill:#10C9C3;" width="45.259" height="21.333"/>
<rect x="200.375" y="541.022" transform="matrix(0.7071 -0.7071 0.7071 0.7071 -324.7865 319.2737)" style="fill:#10C9C3;" width="45.259" height="21.333"/>
<rect x="29.681" y="370.334" transform="matrix(0.7071 -0.7071 0.7071 0.7071 -254.0868 148.5818)" style="fill:#10C9C3;" width="45.259" height="21.333"/>
<path style="fill:#10C9C3;" d="M241.357,374.877c-2.83,0.008-5.546-1.118-7.541-3.125l-44.235-44.235
	c-4.164-4.165-4.164-10.917,0-15.083l162.197-162.197c12.473-11.907,32.103-11.907,44.576,0l14.741,14.741
	c12.309,12.301,12.316,32.252,0.015,44.561c-0.005,0.005-0.01,0.01-0.015,0.015L248.899,371.752
	C246.899,373.753,244.186,374.877,241.357,374.877z M212.205,319.976l29.152,29.152l154.667-154.667
	c3.979-3.977,3.981-10.427,0.005-14.406c-0.002-0.002-0.003-0.003-0.005-0.005l-14.752-14.731c-4.028-3.85-10.372-3.85-14.4,0
	L212.205,319.976z"/>
<path style="fill:#10C9C3;" d="M175,397c-5.891,0.001-10.668-4.773-10.669-10.664c0-1.146,0.184-2.285,0.547-3.373L187,316.605
	l20.267,6.752l-15.371,46.112l46.037-15.371l6.752,20.267l-66.357,22.123C177.252,396.831,176.129,397.004,175,397z"/>
<rect x="341.277" y="178.097" transform="matrix(0.7071 -0.7071 0.7071 0.7071 -44.9701 310.1871)" style="fill:#10C9C3;" width="21.333" height="62.56"/>
<rect x="175" y="375.667" style="fill:#10C9C3;" width="160" height="21.333"/>
<rect x="356.333" y="375.667" style="fill:#10C9C3;" width="21.333" height="21.333"/>
<rect x="399" y="375.667" style="fill:#10C9C3;" width="21.333" height="21.333"/>
</svg>
