<?xml version="1.0" encoding="iso-8859-1"?>
<!-- Generator: Adobe Illustrator 21.1.0, SVG Export Plug-In . SVG Version: 6.00 Build 0)  -->
<svg version="1.1" id="Capa_1" xmlns="http://www.w3.org/2000/svg" xmlns:xlink="http://www.w3.org/1999/xlink" x="0px" y="0px"
	 viewBox="-49 141 512 512" style="enable-background:new -49 141 512 512;" xml:space="preserve">
<path style="fill:#10C9C3;" d="M452.333,653H-38.333C-44.224,653-49,648.224-49,642.333v-10.667h512v10.667
	C463,648.224,458.224,653,452.333,653z"/>
<path style="fill:#10C9C3;" d="M153.667,653H-17c-5.891,0-10.667-4.776-10.667-10.667V343.667C-27.667,337.776-22.891,333-17,333
	h170.667c5.891,0,10.667,4.776,10.667,10.667v298.667C164.333,648.224,159.558,653,153.667,653z M-6.333,631.667H143V354.333H-6.333
	V631.667z"/>
<path style="fill:#10C9C3;" d="M431,653H260.333c-5.891,0-10.667-4.776-10.667-10.667V215.667c0-5.891,4.776-10.667,10.667-10.667
	H431c5.891,0,10.667,4.776,10.667,10.667v426.667C441.667,648.224,436.891,653,431,653z M271,631.667h149.333V226.333H271V631.667z"
	/>
<path style="fill:#10C9C3;" d="M79,311.667H57.667v-160c0-5.891,4.776-10.667,10.667-10.667h288c5.891,0,10.667,4.776,10.667,10.667
	v32h-21.333v-21.333H79V311.667z"/>
<path style="fill:#10C9C3;" d="M15,375.667h21.333v192H15V375.667z"/>
<path style="fill:#10C9C3;" d="M57.667,375.667H79v192H57.667V375.667z"/>
<path style="fill:#10C9C3;" d="M100.333,375.667h21.333v192h-21.333V375.667z"/>
<path style="fill:#10C9C3;" d="M260.333,258.333h117.333v21.333H260.333V258.333z"/>
<path style="fill:#10C9C3;" d="M260.333,311.667h117.333V333H260.333V311.667z"/>
<path style="fill:#10C9C3;" d="M260.333,365h117.333v21.333H260.333V365z"/>
<path style="fill:#10C9C3;" d="M260.333,418.333h117.333v21.333H260.333V418.333z"/>
<path style="fill:#10C9C3;" d="M260.333,471.667h117.333V493H260.333V471.667z"/>
<path style="fill:#10C9C3;" d="M260.333,525h117.333v21.333H260.333V525z"/>
<path style="fill:#10C9C3;" d="M111,194.333h21.333v32H111V194.333z"/>
<path style="fill:#10C9C3;" d="M111,258.333h21.333v32H111V258.333z"/>
<path style="fill:#10C9C3;" d="M153.667,258.333H175v32h-21.333V258.333z"/>
<path style="fill:#10C9C3;" d="M153.667,194.333H175v32h-21.333V194.333z"/>
<path style="fill:#10C9C3;" d="M196.333,194.333h21.333v32h-21.333V194.333z"/>
<path style="fill:#10C9C3;" d="M196.333,258.333h21.333v32h-21.333V258.333z"/>
<path style="fill:#10C9C3;" d="M196.333,322.333h21.333v32h-21.333V322.333z"/>
<path style="fill:#10C9C3;" d="M196.333,386.333h21.333v32h-21.333V386.333z"/>
<path style="fill:#10C9C3;" d="M196.333,450.333h21.333v32h-21.333V450.333z"/>
<path style="fill:#10C9C3;" d="M196.333,514.333h21.333v32h-21.333V514.333z"/>
<path style="fill:#10C9C3;" d="M367,642.333h-21.333v-42.667h-32v42.667h-21.333V589c0-5.891,4.776-10.667,10.667-10.667h53.333
	c5.891,0,10.667,4.776,10.667,10.667V642.333z"/>
<path style="fill:#10C9C3;" d="M121.667,642.333h-21.333v-32h-64v32H15v-42.667C15,593.776,19.776,589,25.667,589H111
	c5.891,0,10.667,4.776,10.667,10.667V642.333z"/>
</svg>
