<?xml version="1.0" encoding="iso-8859-1"?>
<!-- Generator: Adobe Illustrator 21.1.0, SVG Export Plug-In . SVG Version: 6.00 Build 0)  -->
<svg version="1.1" id="&#x421;&#x43B;&#x43E;&#x439;_1"
	 xmlns="http://www.w3.org/2000/svg" xmlns:xlink="http://www.w3.org/1999/xlink" x="0px" y="0px" viewBox="0 0 66.742 37.543"
	 style="enable-background:new 0 0 66.742 37.543;" xml:space="preserve">
<g>
	<path style="fill:#FFFFFF;" d="M65.504,1.238C64.68,0.414,63.703,0,62.57,0H4.172c-1.129,0-2.11,0.414-2.934,1.238
		C0.414,2.066,0,3.043,0,4.172c0,1.129,0.414,2.105,1.238,2.933l29.2,29.2c0.828,0.824,1.804,1.238,2.933,1.238
		c1.129,0,2.109-0.414,2.934-1.238l29.199-29.2c0.824-0.828,1.238-1.804,1.238-2.933C66.742,3.043,66.328,2.066,65.504,1.238
		L65.504,1.238z M65.504,1.238"/>
</g>
</svg>
