<?xml version="1.0" encoding="utf-8"?>
<!-- Generator: Adobe Illustrator 22.0.0, SVG Export Plug-In . SVG Version: 6.00 Build 0)  -->
<svg version="1.1" id="Layer_1" xmlns="http://www.w3.org/2000/svg" xmlns:xlink="http://www.w3.org/1999/xlink" x="0px" y="0px"
	 viewBox="0 0 512 512" style="enable-background:new 0 0 512 512;" xml:space="preserve">
<style type="text/css">
	.st0{fill:#fff;}
</style>
<g>
	<g>
		<path class="st0" d="M224,264c0,2-8.5,8-24,8s-24-6-24-8h-16c0,13.7,17.2,24,40,24s40-10.3,40-24H224z"/>
	</g>
</g>
<g>
	<g>
		<path class="st0" d="M336,264c0,2-8.5,8-24,8s-24-6-24-8h-16c0,13.7,17.2,24,40,24c22.8,0,40-10.3,40-24H336z"/>
	</g>
</g>
<g>
	<g>
		<rect y="168" class="st0" width="24" height="16"/>
	</g>
</g>
<g>
	<g>
		<rect x="32" y="136" class="st0" width="16" height="16"/>
	</g>
</g>
<g>
	<g>
		<rect y="136" class="st0" width="16" height="16"/>
	</g>
</g>
<g>
	<g>
		<rect x="464" y="144" class="st0" width="16" height="16"/>
	</g>
</g>
<g>
	<g>
		<rect x="496" y="144" class="st0" width="16" height="16"/>
	</g>
</g>
<g>
	<g>
		<rect x="416" y="32" class="st0" width="16" height="16"/>
	</g>
</g>
<g>
	<g>
		<rect x="448" y="32" class="st0" width="16" height="16"/>
	</g>
</g>
<g>
	<g>
		<rect x="480" y="32" class="st0" width="16" height="16"/>
	</g>
</g>
<g>
	<g>
		<rect x="32" class="st0" width="16" height="16"/>
	</g>
</g>
<g>
	<g>
		<rect x="64" class="st0" width="16" height="16"/>
	</g>
</g>
<g>
	<g>
		<rect x="96" class="st0" width="16" height="16"/>
	</g>
</g>
<g>
	<g>
		<rect x="248" y="40" class="st0" width="16" height="16"/>
	</g>
</g>
<g>
	<g>
		<rect x="280" y="40" class="st0" width="16" height="16"/>
	</g>
</g>
<g>
	<g>
		<rect x="208" y="128" class="st0" width="16" height="16"/>
	</g>
</g>
<g>
	<g>
		<rect x="240" y="128" class="st0" width="16" height="16"/>
	</g>
</g>
<g>
	<g>
		<rect x="312" y="40" class="st0" width="16" height="16"/>
	</g>
</g>
<g>
	<g>
		<path class="st0" d="M509.7,498.3l-41.9-41.9c-10.6-10.6-24.6-16.4-39.6-16.4H360c-21.6,0-39.2-17.3-39.9-38.7
			c37.6-47.7,59.9-105.7,63.5-167.5l0.6-9.7H512v-16H385.2c0.9-16.6-1.3-32.8-6.4-48H448v-16h-75.7c-5.6-11.4-13-22-22-31.6
			C325.8,86.4,292.5,72,256.7,72c-31.7,0-61.4,11.3-84.9,32H40v16h116.6c-11.6,14.3-19.9,30.6-24.4,48H40v16h89.1
			c-1,7.9-1.4,16-0.9,24.2l1.5,25.5c3.6,61.3,25.5,118.8,62.5,166.3H192c0,22.1-17.9,40-40,40H83.9c-15,0-29,5.8-39.6,16.4
			L2.3,498.3C0.8,499.8,0,501.9,0,504v8h16v-4.7l39.6-39.6c7.6-7.5,17.6-11.7,28.3-11.7H152c25.3,0,46.7-16.9,53.6-39.9
			c6.8,7.6,14,14.9,21.7,21.9c1.5,1.3,3.4,2.1,5.4,2.1h48c2,0,3.9-0.7,5.4-2.1c7.3-6.6,14.2-13.5,20.7-20.7
			C314,439.7,335.1,456,360,456h68.1c10.7,0,20.7,4.2,28.3,11.7l39.6,39.6v4.7h16v-8C512,501.9,511.2,499.8,509.7,498.3z M277.6,424
			h-41.8C182,374,150,306.2,145.7,232.8l-1.5-25.5c-0.5-7.9-0.1-15.7,1-23.3h43.5l-10.3,10.3l11.3,11.3l29.7-29.7l-29.7-29.7
			l-11.3,11.3l10.3,10.3h-39.8c5-16.4,13.6-31.7,25.8-44.6c21.5-22.8,50.6-35.4,82-35.4s60.5,12.6,82,35.4
			c6,6.4,11.1,13.3,15.4,20.6h-54.7l10.3-10.3l-11.3-11.3L268.7,152l29.7,29.7l11.3-11.3L299.3,160h62.5c5.8,14.8,8.4,30.8,7.4,47.3
			l0,0.7h-37.8l10.3-10.3l-11.3-11.3L300.7,216l29.7,29.7l11.3-11.3L331.3,224h36.9l-0.5,8.8C363.4,306.2,331.4,374,277.6,424z"/>
	</g>
</g>
</svg>
