<svg xmlns="http://www.w3.org/2000/svg" viewBox="0 0 512 512"><defs><style>.cls-1{fill:#fff;}.cls-2{fill:#3566d3;}</style></defs><title>vk</title><g id="Capa_1" data-name="Capa 1"><path class="cls-1" d="M256,0C114.61,0,0,114.61,0,256S114.61,512,256,512,512,397.39,512,256,397.39,0,256,0Zm0,472C136.7,472,40,375.3,40,256S136.7,40,256,40s216,96.7,216,216S375.3,472,256,472Z"/></g><g id="Слой_3" data-name="Слой 3"><path class="cls-2" d="M413.41,326.91a21.91,21.91,0,0,0-1.09-2.1q-8.37-15.07-32-37l-.33-.33-.17-.16-.17-.17h-.17q-10.71-10.22-13.56-13.73-5.19-6.71-2.35-13.57,2-5.19,15.07-21.93,6.87-8.88,10.89-14.23,29-38.52,25.11-49.23l-1-1.67q-1-1.51-5.19-2.76a26.28,26.28,0,0,0-10.72-.42l-48.22.33a6.19,6.19,0,0,0-3.35.09l-2.18.5-.84.42-.67.5a7.69,7.69,0,0,0-1.84,1.76,11.68,11.68,0,0,0-1.67,2.93,273.18,273.18,0,0,1-17.92,37.67q-6.19,10.38-11.38,18A86.85,86.85,0,0,1,301,243a61.24,61.24,0,0,1-6.36,5.78q-2.85,2.17-4.35,1.84c-1-.23-2-.45-2.85-.67a11.13,11.13,0,0,1-3.77-4.1,18.51,18.51,0,0,1-1.93-6.54c-.33-2.62-.53-4.88-.58-6.78s0-4.57.08-8,.17-5.81.17-7q0-6.36.25-13.81t.42-11.8q.17-4.37.17-9.21a38.58,38.58,0,0,0-.59-7.62,26.25,26.25,0,0,0-1.75-5.36,9,9,0,0,0-3.44-4,19.25,19.25,0,0,0-5.61-2.26,111.75,111.75,0,0,0-22.6-2.18q-31.14-.33-40,4a22.57,22.57,0,0,0-6.36,5q-3,3.69-.84,4,10,1.51,14.23,7.2l1,2a32.11,32.11,0,0,1,2.34,7.7,77.69,77.69,0,0,1,1.51,12.23,132,132,0,0,1,0,20.93q-.84,8.7-1.59,13.56a27.48,27.48,0,0,1-2.26,7.87,34.16,34.16,0,0,1-2,3.68,2.93,2.93,0,0,1-.84.84,12.67,12.67,0,0,1-4.52.84c-1.57,0-3.46-.79-5.69-2.35a39.57,39.57,0,0,1-6.95-6.45,84.8,84.8,0,0,1-8.12-11.47q-4.53-7.37-9.38-17.41l-2.68-4.86q-2.5-4.68-6.86-13.64t-7.71-17.33a11,11,0,0,0-4-5.36l-.84-.5a11.5,11.5,0,0,0-2.68-1.43,17.86,17.86,0,0,0-3.85-1.08l-45.88.33q-7,0-9.54,3.18l-.67,1a5.32,5.32,0,0,0-.51,2.68,13.43,13.43,0,0,0,1,4.52q10,23.61,21.85,45.54t20.51,35.33q8.7,13.39,17.75,25.28t12,15.24c1.95,2.23,3.49,3.9,4.6,5l4.19,4A99.45,99.45,0,0,0,187.2,321a202.26,202.26,0,0,0,17.25,11,93.53,93.53,0,0,0,22,8.87,76.25,76.25,0,0,0,24.45,2.77h19.25q5.86-.51,8.88-3.69l.66-.84a11,11,0,0,0,1.26-3.09,17.09,17.09,0,0,0,.58-4.6,55.71,55.71,0,0,1,1.09-13,34.59,34.59,0,0,1,2.85-8.71,21.07,21.07,0,0,1,3.6-4.93,14.6,14.6,0,0,1,2.85-2.43,12.15,12.15,0,0,1,1.34-.59q4-1.33,9.46,2.6A55.27,55.27,0,0,1,313,314.18q4.79,5.77,11.47,13a78.84,78.84,0,0,0,11.72,10.71l3.35,2a41.15,41.15,0,0,0,8.71,3.69,18.81,18.81,0,0,0,9.38.83l42.86-.66c4.24,0,7.54-.71,9.88-2.1s3.73-2.93,4.18-4.6a12.91,12.91,0,0,0,.09-5.7A20.89,20.89,0,0,0,413.41,326.91Z"/></g></svg>