<svg xmlns="http://www.w3.org/2000/svg" viewBox="0 0 512 512"><defs><style>.cls-1{fill:#fff;}.cls-2{fill:#0fed69;}</style></defs><title>watsaapp</title><g id="Capa_1" data-name="Capa 1"><path class="cls-1" d="M256,0C114.61,0,0,114.61,0,256S114.61,512,256,512,512,397.39,512,256,397.39,0,256,0Zm0,472C136.7,472,40,375.3,40,256S136.7,40,256,40s216,96.7,216,216S375.3,472,256,472Z"/></g><g id="Слой_2" data-name="Слой 2"><path id="WhatsApp" class="cls-2" d="M427.41,238.62c0,83.6-68.3,151.37-152.55,151.37a152.77,152.77,0,0,1-73.74-18.83L116.66,398l27.53-81.22a149.78,149.78,0,0,1-21.89-78.16c0-83.6,68.3-151.37,152.56-151.37S427.41,155,427.41,238.62ZM274.86,111.36c-70.73,0-128.26,57.09-128.26,127.26A126,126,0,0,0,171,313.24L155,360.5l49.29-15.66a128.2,128.2,0,0,0,70.56,21.05c70.72,0,128.26-57.09,128.26-127.26S345.58,111.36,274.86,111.36Zm77,162.12c-.94-1.54-3.43-2.47-7.17-4.33s-22.13-10.83-25.55-12.06-5.93-1.86-8.42,1.85S301.1,271,298.91,273.48s-4.36,2.8-8.1.94S275,268.64,260.74,256c-11.11-9.84-18.62-22-20.8-25.7s-.23-5.71,1.64-7.56c1.68-1.67,3.74-4.33,5.61-6.5a24.72,24.72,0,0,0,3.73-6.19,6.74,6.74,0,0,0-.31-6.5c-.93-1.86-8.41-20.11-11.53-27.54s-6.22-6.19-8.41-6.19-4.67-.31-7.17-.31a13.8,13.8,0,0,0-10,4.64c-3.43,3.71-13.08,12.69-13.08,31s13.39,35.89,15.26,38.37,25.86,41.15,63.88,56,38,9.9,44.88,9.27,22.11-9,25.24-17.63S352.82,275,351.89,273.48Z"/></g></svg>