<svg xmlns="http://www.w3.org/2000/svg" viewBox="0 0 512 512"><defs><style>.cls-1{fill:#fff;}.cls-2{fill:#d11818;}</style></defs><title>youtube</title><g id="Capa_1" data-name="Capa 1"><path class="cls-1" d="M256,0C114.61,0,0,114.61,0,256S114.61,512,256,512,512,397.39,512,256,397.39,0,256,0Zm0,472C136.7,472,40,375.3,40,256S136.7,40,256,40s216,96.7,216,216S375.3,472,256,472Z"/></g><g id="Слой_5" data-name="Слой 5"><g id="_Группа_" data-name="&lt;Группа&gt;"><path id="_Составной_контур_" data-name="&lt;Составной контур&gt;" class="cls-2" d="M415.61,162.27c-12.34-14.67-35.12-20.66-78.64-20.66H179c-44.51,0-67.68,6.37-80,22-12,15.23-12,37.67-12,68.72v59.19c0,60.16,14.22,90.7,92,90.7H337c37.73,0,58.64-5.28,72.17-18.22,13.87-13.28,19.79-35,19.79-72.48V232.32C428.94,199.57,428,177,415.61,162.27ZM306.55,270.08l-71.73,37.49a11,11,0,0,1-16.13-9.77V223.06a11,11,0,0,1,16.11-9.78l71.72,37.24a11,11,0,0,1,0,19.56Z"/></g></g></svg>